<?xml version="1.0" encoding="UTF-8" standalone="no"?>
<!-- Created with Inkscape (http://www.inkscape.org/) -->

<svg
   xmlns:dc="http://purl.org/dc/elements/1.1/"
   xmlns:cc="http://creativecommons.org/ns#"
   xmlns:rdf="http://www.w3.org/1999/02/22-rdf-syntax-ns#"
   xmlns:svg="http://www.w3.org/2000/svg"
   xmlns="http://www.w3.org/2000/svg"
   xmlns:xlink="http://www.w3.org/1999/xlink"
   xmlns:sodipodi="http://sodipodi.sourceforge.net/DTD/sodipodi-0.dtd"
   xmlns:inkscape="http://www.inkscape.org/namespaces/inkscape"
   width="235"
   height="110"
   id="svg2"
   version="1.1"
   inkscape:version="0.48.3.1 r9886"
   sodipodi:docname="printa-printer-config.svg"
   inkscape:export-filename="/srv/svn/pandora/printa/trunk/rsrc/printa-printer-config.png"
   inkscape:export-xdpi="90"
   inkscape:export-ydpi="90">
  <defs
     id="defs4">
    <linearGradient
       inkscape:collect="always"
       id="linearGradient3240">
      <stop
         style="stop-color:#ffa030;stop-opacity:1"
         offset="0"
         id="stop3242" />
      <stop
         style="stop-color:#fff0aa;stop-opacity:0;"
         offset="1"
         id="stop3244" />
    </linearGradient>
    <linearGradient
       inkscape:collect="always"
       xlink:href="#linearGradient3240"
       id="linearGradient3246"
       x1="-66.071426"
       y1="902.36206"
       x2="132.85713"
       y2="999.14783"
       gradientUnits="userSpaceOnUse" />
    <linearGradient
       id="linearGradient2087-143">
      <stop
         style="stop-color:#4dafff;stop-opacity:1;"
         offset="0"
         id="stop2967" />
      <stop
         id="stop2969"
         offset="0.0000000"
         style="stop-color:#2573eb;stop-opacity:1;" />
      <stop
         style="stop-color:#114bb9;stop-opacity:1;"
         offset="0.75"
         id="stop2971" />
      <stop
         style="stop-color:#11419b;stop-opacity:1;"
         offset="1"
         id="stop2973" />
    </linearGradient>
    <linearGradient
       id="linearGradient4308-179">
      <stop
         style="stop-color:#f4fafa;stop-opacity:0.22916669;"
         offset="0.0000000"
         id="stop2931" />
      <stop
         style="stop-color:#f4fafa;stop-opacity:0;"
         offset="1"
         id="stop2933" />
    </linearGradient>
    <radialGradient
       inkscape:collect="always"
       xlink:href="#linearGradient5971"
       id="radialGradient5985"
       gradientUnits="userSpaceOnUse"
       cx="25.148935"
       cy="14.425532"
       fx="25.148935"
       fy="14.425532"
       r="2.8510637" />
    <radialGradient
       inkscape:collect="always"
       xlink:href="#linearGradient5971"
       id="radialGradient5981"
       gradientUnits="userSpaceOnUse"
       cx="25.148935"
       cy="14.425532"
       fx="25.148935"
       fy="14.425532"
       r="2.8510637" />
    <radialGradient
       inkscape:collect="always"
       xlink:href="#linearGradient5971"
       id="radialGradient5977"
       cx="25.148935"
       cy="14.425532"
       fx="25.148935"
       fy="14.425532"
       r="2.8510637"
       gradientUnits="userSpaceOnUse" />
    <linearGradient
       inkscape:collect="always"
       xlink:href="#linearGradient6001"
       id="linearGradient5094"
       gradientUnits="userSpaceOnUse"
       x1="-21.658581"
       y1="15.649428"
       x2="-21.962101"
       y2="21.336346" />
    <linearGradient
       inkscape:collect="always"
       xlink:href="#linearGradient6001"
       id="linearGradient5092"
       gradientUnits="userSpaceOnUse"
       x1="-22.822565"
       y1="28.337734"
       x2="-22.113543"
       y2="22.661524" />
    <linearGradient
       inkscape:collect="always"
       xlink:href="#linearGradient6001"
       id="linearGradient5090"
       gradientUnits="userSpaceOnUse"
       x1="-25.176178"
       y1="30.057165"
       x2="-22.113543"
       y2="22.661524" />
    <linearGradient
       inkscape:collect="always"
       xlink:href="#linearGradient6001"
       id="linearGradient5088"
       gradientUnits="userSpaceOnUse"
       x1="-25.176178"
       y1="30.057165"
       x2="-22.252472"
       y2="21.041553" />
    <linearGradient
       id="linearGradient6001"
       inkscape:collect="always">
      <stop
         id="stop6003"
         offset="0"
         style="stop-color:#ffffff;stop-opacity:1;" />
      <stop
         id="stop6005"
         offset="1"
         style="stop-color:#ffffff;stop-opacity:0;" />
    </linearGradient>
    <radialGradient
       inkscape:collect="always"
       xlink:href="#linearGradient4308"
       id="radialGradient3949"
       gradientUnits="userSpaceOnUse"
       gradientTransform="matrix(0.224024,2.512926e-17,-2.393278e-17,0.247884,5.94701,11.11514)"
       cx="64.841805"
       cy="119.52609"
       fx="64.841805"
       fy="119.52609"
       r="56.442806" />
    <linearGradient
       inkscape:collect="always"
       xlink:href="#linearGradient4206"
       id="linearGradient4212"
       x1="59.64286"
       y1="14.832381"
       x2="59.64286"
       y2="121.82737"
       gradientUnits="userSpaceOnUse" />
    <linearGradient
       inkscape:collect="always"
       xlink:href="#linearGradient6534"
       id="linearGradient6540"
       x1="29.183714"
       y1="367.82727"
       x2="83.525612"
       y2="21.705061"
       gradientUnits="userSpaceOnUse" />
    <radialGradient
       inkscape:collect="always"
       xlink:href="#linearGradient6519"
       id="radialGradient6525"
       cx="56.109314"
       cy="115.14162"
       fx="56.109314"
       fy="136.4689"
       r="54.105412"
       gradientTransform="matrix(0.91358,2.206993e-7,-4.100829e-8,0.169753,4.848958,95.59596)"
       gradientUnits="userSpaceOnUse" />
    <linearGradient
       inkscape:collect="always"
       xlink:href="#linearGradient5044"
       id="linearGradient5063"
       gradientUnits="userSpaceOnUse"
       x1="70.848709"
       y1="-18.184502"
       x2="67.070114"
       y2="69.195572"
       gradientTransform="matrix(0.335523,0,0,0.384514,-1.398007,-1.994427)" />
    <radialGradient
       inkscape:collect="always"
       xlink:href="#linearGradient2087"
       id="radialGradient5059"
       gradientUnits="userSpaceOnUse"
       cx="52.664207"
       cy="59.985241"
       fx="52.664207"
       fy="59.985241"
       r="56.442806"
       gradientTransform="matrix(1.119035,5.340557e-16,-5.627992e-16,1.119035,-6.268888,-7.140347)" />
    <linearGradient
       id="linearGradient2087">
      <stop
         style="stop-color:#5ab9ff;stop-opacity:1;"
         offset="0"
         id="stop2089" />
      <stop
         id="stop2816"
         offset="0.0000000"
         style="stop-color:#007be4;stop-opacity:1;" />
      <stop
         style="stop-color:#005eb5;stop-opacity:1;"
         offset="0.75"
         id="stop2818" />
      <stop
         style="stop-color:#004d9b;stop-opacity:1;"
         offset="1"
         id="stop2091" />
    </linearGradient>
    <linearGradient
       id="linearGradient4308">
      <stop
         style="stop-color:#ffffff;stop-opacity:0.22916669;"
         offset="0.0000000"
         id="stop4310" />
      <stop
         style="stop-color:#ffffff;stop-opacity:0;"
         offset="1"
         id="stop4312" />
    </linearGradient>
    <linearGradient
       inkscape:collect="always"
       id="linearGradient5044">
      <stop
         style="stop-color:#ffffff;stop-opacity:1;"
         offset="0"
         id="stop5046" />
      <stop
         style="stop-color:#ffffff;stop-opacity:0;"
         offset="1"
         id="stop5048" />
    </linearGradient>
    <linearGradient
       inkscape:collect="always"
       id="linearGradient6519">
      <stop
         style="stop-color:black;stop-opacity:0.39215687"
         offset="0"
         id="stop6521" />
      <stop
         style="stop-color:#000000;stop-opacity:0;"
         offset="1"
         id="stop6523" />
    </linearGradient>
    <linearGradient
       inkscape:collect="always"
       id="linearGradient6534">
      <stop
         style="stop-color:#000000;stop-opacity:0.39600000"
         offset="0"
         id="stop6536" />
      <stop
         style="stop-color:#000000;stop-opacity:0;"
         offset="1"
         id="stop6538" />
    </linearGradient>
    <linearGradient
       inkscape:collect="always"
       id="linearGradient4206">
      <stop
         style="stop-color:#ffffff;stop-opacity:1;"
         offset="0"
         id="stop4208" />
      <stop
         style="stop-color:#ffffff;stop-opacity:0.36909872"
         offset="1"
         id="stop4210" />
    </linearGradient>
    <linearGradient
       inkscape:collect="always"
       id="linearGradient5971">
      <stop
         style="stop-color:white;stop-opacity:1;"
         offset="0"
         id="stop5973" />
      <stop
         style="stop-color:white;stop-opacity:0;"
         offset="1"
         id="stop5975" />
    </linearGradient>
    <inkscape:perspective
       sodipodi:type="inkscape:persp3d"
       inkscape:vp_x="0 : 24 : 1"
       inkscape:vp_y="0 : 1000 : 0"
       inkscape:vp_z="48 : 24 : 1"
       inkscape:persp3d-origin="24 : 16 : 1"
       id="perspective63" />
    <linearGradient
       inkscape:collect="always"
       id="linearGradient6647-351">
      <stop
         style="stop-color:#f4fafa;stop-opacity:1;"
         offset="0"
         id="stop2858" />
      <stop
         style="stop-color:#f4fafa;stop-opacity:0.45064378"
         offset="1"
         id="stop2860" />
    </linearGradient>
    <linearGradient
       inkscape:collect="always"
       xlink:href="#linearGradient6647-351"
       id="linearGradient6653-95"
       x1="38.311138"
       y1="29.974993"
       x2="26.017185"
       y2="26.680838"
       gradientUnits="userSpaceOnUse"
       gradientTransform="matrix(1.308298,0,0,1.26823,-17.41594,-13.94055)" />
    <linearGradient
       id="linearGradient2049-859"
       inkscape:collect="always">
      <stop
         id="stop2852"
         offset="0"
         style="stop-color:#f4fafa;stop-opacity:0.527897" />
      <stop
         id="stop2854"
         offset="1"
         style="stop-color:#f4fafa;stop-opacity:0;" />
    </linearGradient>
    <linearGradient
       inkscape:collect="always"
       xlink:href="#linearGradient2049-859"
       id="linearGradient4018-144"
       gradientUnits="userSpaceOnUse"
       x1="72.151817"
       y1="38.213421"
       x2="72.151817"
       y2="77.304459"
       gradientTransform="matrix(0.473102,0,0,0.486551,-14.45093,-13.94975)" />
    <linearGradient
       id="linearGradient4234-687">
      <stop
         id="stop2846"
         offset="0"
         style="stop-color:#cedcff;stop-opacity:1;" />
      <stop
         id="stop2848"
         offset="1"
         style="stop-color:#4dafff;stop-opacity:1;" />
    </linearGradient>
    <linearGradient
       inkscape:collect="always"
       xlink:href="#linearGradient4234-687"
       id="linearGradient4021-501"
       gradientUnits="userSpaceOnUse"
       x1="34.812870"
       y1="16.950554"
       x2="34.812870"
       y2="50.460960"
       gradientTransform="matrix(0.604677,0,0,0.611141,-2.223758,-2.866561)" />
    <linearGradient
       inkscape:collect="always"
       xlink:href="#linearGradient6647"
       id="linearGradient6653"
       x1="38.311138"
       y1="29.974993"
       x2="26.017185"
       y2="26.680838"
       gradientUnits="userSpaceOnUse"
       gradientTransform="matrix(1.308298,0,0,1.26823,-17.41594,-13.94055)" />
    <linearGradient
       inkscape:collect="always"
       xlink:href="#linearGradient4234"
       id="linearGradient4021"
       gradientUnits="userSpaceOnUse"
       x1="34.812870"
       y1="16.950554"
       x2="34.812870"
       y2="50.460960"
       gradientTransform="matrix(0.604677,0,0,0.611141,-2.223758,-2.866561)" />
    <linearGradient
       inkscape:collect="always"
       xlink:href="#linearGradient2049"
       id="linearGradient4018"
       gradientUnits="userSpaceOnUse"
       x1="72.151817"
       y1="38.213421"
       x2="72.151817"
       y2="77.304459"
       gradientTransform="matrix(0.473102,0,0,0.486551,-14.45093,-13.94975)" />
    <linearGradient
       id="linearGradient2049"
       inkscape:collect="always">
      <stop
         id="stop2051"
         offset="0"
         style="stop-color:white;stop-opacity:0.527897" />
      <stop
         id="stop2053"
         offset="1"
         style="stop-color:#ffffff;stop-opacity:0;" />
    </linearGradient>
    <linearGradient
       id="linearGradient4234">
      <stop
         id="stop4236"
         offset="0"
         style="stop-color:#c1e3ff;stop-opacity:1;" />
      <stop
         id="stop4238"
         offset="1"
         style="stop-color:#56ace5;stop-opacity:1;" />
    </linearGradient>
    <linearGradient
       inkscape:collect="always"
       id="linearGradient6647">
      <stop
         style="stop-color:white;stop-opacity:1;"
         offset="0"
         id="stop6649" />
      <stop
         style="stop-color:white;stop-opacity:0.45064378"
         offset="1"
         id="stop6651" />
    </linearGradient>
    <inkscape:perspective
       sodipodi:type="inkscape:persp3d"
       inkscape:vp_x="0 : 24 : 1"
       inkscape:vp_y="0 : 1000 : 0"
       inkscape:vp_z="48 : 24 : 1"
       inkscape:persp3d-origin="24 : 16 : 1"
       id="perspective23" />
  </defs>
  <sodipodi:namedview
     id="base"
     pagecolor="#ffffff"
     bordercolor="#666666"
     borderopacity="1.0"
     inkscape:pageopacity="0.0"
     inkscape:pageshadow="2"
     inkscape:zoom="2.8"
     inkscape:cx="144.10731"
     inkscape:cy="61.883929"
     inkscape:document-units="px"
     inkscape:current-layer="layer1"
     showgrid="false"
     inkscape:window-width="1280"
     inkscape:window-height="948"
     inkscape:window-x="0"
     inkscape:window-y="24"
     inkscape:window-maximized="1" />
  <metadata
     id="metadata7">
    <rdf:RDF>
      <cc:Work
         rdf:about="">
        <dc:format>image/svg+xml</dc:format>
        <dc:type
           rdf:resource="http://purl.org/dc/dcmitype/StillImage" />
        <dc:title />
      </cc:Work>
    </rdf:RDF>
  </metadata>
  <g
     inkscape:label="Capa 1"
     inkscape:groupmode="layer"
     id="layer1"
     transform="translate(0,-942.36218)">
    <rect
       style="color:#000000;fill:url(#linearGradient3246);fill-opacity:1;fill-rule:nonzero;stroke:none;stroke-width:8.10000038000000089;marker:none;visibility:visible;display:inline;overflow:visible;enable-background:accumulate"
       id="rect2985"
       width="235"
       height="110.857"
       x="2.7617054e-07"
       y="941.50519" />
    <g
       inkscape:label="Layer 1"
       id="layer1-1"
       transform="matrix(2.7162125,0,0,2.7162125,141.75968,897.19715)">
      <path
         style="color:#000000;fill:#1b5fcd;fill-opacity:1;fill-rule:evenodd;stroke:#11419b;stroke-width:1.02248347;stroke-linecap:round;stroke-linejoin:round;stroke-miterlimit:4;stroke-opacity:1;stroke-dasharray:none;stroke-dashoffset:0;marker:none;visibility:visible;display:inline;overflow:visible"
         d="m 26.652146,1.5112415 -4.856039,5.541258 -3.709542,-2.2829182 1.281519,1.007097 -3.548645,-2.7801519 -4.949425,3.141952 0.69105,8.4737466 -7.0599342,1.847086 -0.9898864,5.598387 6.0887292,4.646278 -4.4451456,6.740913 3.7167392,4.950954 0.031272,-0.02391 3.9656238,2.518431 4.295728,-1.675706 1.680936,4.170227 0.06125,-0.01683 3.954327,2.511348 6.85449,0.609347 2.502726,-7.97865 7.078615,1.923254 3.287168,-5.350838 -3.772771,-7.274093 5.677831,-5.274669 -1.512843,-6.360071 -4.001724,-2.537245 0.0048,0.04273 -3.175105,-0.476053 0.03736,-6.6266606 -4.015575,-2.4803988 0,-0.014119 -5.173551,-2.570688 z m -0.63502,17.3092945 c 0.113274,0 0.205908,0.06833 0.317511,0.07617 0.749121,1.121517 1.270041,2.484356 1.270041,4.017887 -2e-6,3.629561 -2.513127,6.569537 -5.603124,6.569537 -0.119593,0 -0.218419,-0.06749 -0.336186,-0.07617 -0.752466,-1.117591 -1.270044,-2.465315 -1.270044,-3.998846 2e-6,-3.629561 2.5318,-6.588576 5.621802,-6.588576 z"
         id="path2041"
         sodipodi:nodetypes="ccccccccccccccccccccccccccccccccccsscsc"
         inkscape:connector-curvature="0" />
      <path
         style="color:#000000;fill:url(#linearGradient4021-501);fill-opacity:1;fill-rule:evenodd;stroke:none;stroke-width:1.86331141;marker:none;visibility:visible;display:inline;overflow:visible"
         d="M 26.537485,2 21.471285,7.7153745 15.978957,3.444977 11.165279,6.4772487 11.843929,14.655197 4.9627365,16.437806 4,21.829224 9.9184569,26.313311 5.6003402,32.825753 9.2145447,37.603879 15.906347,35.012666 18.936598,42.418762 25.622096,43 l 2.430513,-7.700134 6.881193,1.85612 3.203856,-5.164053 L 34.476106,24.971762 40,19.88122 38.532224,13.743164 31.540553,12.695652 31.572117,4.4809497 26.537485,2 z M 22.00789,16.297625 c 3.96284,0 6.001819,2.855723 6.001819,6.358583 -1e-6,3.502861 -2.993555,6.822598 -6.001819,6.822598 -3.00826,-2e-6 -5.460762,-3.319737 -5.460762,-6.822598 2e-6,-3.502861 2.452502,-6.358583 5.460762,-6.358583 z"
         id="path2043"
         sodipodi:nodetypes="cccccccccccccccccccccccssss"
         inkscape:connector-curvature="0" />
      <path
         id="path1317"
         d="M 26.531416,2 21.460369,7.8234072 15.975359,3.4748561 11.155646,6.5614153 11.835728,14.878396 4.9609866,16.702961 4,22.176659 4.6061603,22.648005 c 3.5436373,-2.166316 8.2395917,-3.597399 13.4685827,-4.05966 0.995884,-1.240332 2.379159,-2.037431 3.932649,-2.037431 2.112721,0 3.625855,0.862981 4.627516,2.174275 4.260643,0.565418 8.065499,1.832338 11.132648,3.573109 L 40,20.200046 38.52156,13.950907 31.528542,12.886578 31.572894,4.5239825 26.531416,2 z"
         style="color:#000000;fill:url(#linearGradient4018-144);fill-opacity:1;fill-rule:evenodd;stroke:none;stroke-width:1.86331141;marker:none;visibility:visible;display:inline;overflow:visible"
         inkscape:connector-curvature="0" />
      <path
         style="color:#000000;fill:none;stroke:url(#linearGradient6653-95);stroke-width:0.96760041;stroke-linecap:round;stroke-linejoin:round;stroke-miterlimit:4;stroke-opacity:1;stroke-dasharray:none;stroke-dashoffset:0;marker:none;visibility:visible;display:inline;overflow:visible"
         d="m 26.401951,3.4838006 -4.865693,5.5941648 -5.841045,-4.2071201 -4.172238,2.4789636 1.00074,7.9580071 -7.3168086,2.142875 -0.7231052,4.419722 6.0369858,4.736045 -4.5761525,6.359275 3.3279051,4.478626 6.3513404,-2.703195 3.199609,7.217101 6.567839,0.557935 2.387739,-7.391419 6.760084,1.781706 3.147473,-4.957013 -3.597112,-6.738714 5.426678,-4.886449 -1.330601,-5.56816 -6.868622,-1.005515 0.03101,-7.9932869 -4.946024,-2.2735485 z m -4.56122,13.4005924 c 3.893096,0 5.89619,2.74123 5.89619,6.103651 -10e-7,3.362419 -2.940871,6.549061 -5.89619,6.549061 -2.955318,-2e-6 -5.364655,-3.186642 -5.364655,-6.549061 1e-6,-3.362422 2.409337,-6.103651 5.364655,-6.103651 z"
         id="path5772"
         sodipodi:nodetypes="cccccccccccccccccccccccssss"
         inkscape:connector-curvature="0" />
    </g>
    <g
       id="g3209"
       transform="matrix(1.5940554,0,0,1.5940554,-160.00553,-579.37026)">
      <g
         transform="translate(96.96347,0)"
         id="g3177">
        <path
           style="font-size:11px;font-style:normal;font-variant:normal;font-weight:normal;font-stretch:normal;line-height:125%;letter-spacing:0px;word-spacing:0px;fill:#000000;fill-opacity:1;stroke:none;font-family:Love LetterTW;-inkscape-font-specification:Love LetterTW"
           inkscape:connector-curvature="0"
           id="path3099"
           d="m 18.939617,965.84688 c -8e-6,0.32018 -0.08005,0.64457 -0.240132,0.97317 -0.08426,0.18537 -0.282268,0.52239 -0.594011,1.01108 -0.109542,0.0253 -0.307544,0.13903 -0.594011,0.34124 -0.278054,0.20222 -0.459207,0.30333 -0.543458,0.30333 -0.08426,0 -0.294904,-0.0168 -0.631926,-0.0506 -0.337032,-0.0337 -0.547675,-0.0506 -0.631927,-0.0506 -0.749891,0 -1.124834,0.32439 -1.12483,0.97316 -4e-6,0.1601 0.02106,0.35389 0.06319,0.58138 0.0084,0.0253 -0.01686,0.0969 -0.07583,0.21485 -0.05899,0.10953 -0.08847,0.20222 -0.08847,0.27805 0.0337,0.0337 0.09267,0.0801 0.176939,0.13902 0.09267,0.059 0.155872,0.10533 0.189578,0.13903 l 0.17694,-0.20222 c 0.02528,0 0.06319,0.0548 0.113746,0.1643 0.05898,0.10111 0.134808,0.17273 0.227494,0.21486 0.278043,0.12638 0.454983,0.21907 0.530819,0.27805 0.143232,0.1011 0.21485,0.23592 0.214855,0.40443 -5e-6,0.43814 -0.387586,0.6572 -1.162746,0.6572 -0.45499,0 -1.411305,-0.0758 -2.868948,-0.22749 -10e-7,-0.0169 -0.02106,-0.0506 -0.06319,-0.10111 -0.0337,-0.059 -0.05056,-0.13481 -0.05056,-0.22749 -10e-7,-0.2612 0.160088,-0.45078 0.480265,-0.56874 0.38758,-0.13481 0.619287,-0.29068 0.695119,-0.46762 0.13481,-0.31175 0.214853,-0.77938 0.240133,-1.40288 -3e-6,0.0927 -3e-6,-0.25698 0,-1.049 -3e-6,-0.25277 -0.05898,-0.84256 -0.17694,-1.76939 0.04213,-0.16851 0.06741,-0.43813 0.07583,-0.80887 -0.06741,-0.16008 -0.147451,-0.42549 -0.240132,-0.79623 -0.07583,-0.0674 -0.231708,-0.13059 -0.467626,-0.18958 -0.23592,-0.059 -0.396008,-0.12216 -0.480264,-0.18958 -0.151663,-0.11795 -0.227494,-0.2991 -0.227494,-0.54345 0,-0.0927 0.02528,-0.18536 0.07583,-0.27805 0.07583,-0.1348 0.122173,-0.22748 0.139024,-0.27805 1.078487,-0.008 2.540343,0.0379 4.385573,0.13903 0.3623,0.0169 0.640346,0.0421 0.834143,0.0758 0.379151,0.0674 0.636134,0.17695 0.770951,0.3286 0.143231,0.14324 0.315957,0.34125 0.51818,0.59401 0.09267,0.1601 0.176933,0.40444 0.252771,0.73304 0.0674,0.27805 0.101097,0.49712 0.101108,0.6572 m -1.124829,-0.4929 c -0.05057,-0.0337 -0.252777,-0.20643 -0.60665,-0.51818 -0.235925,-0.20221 -0.400226,-0.30332 -0.492903,-0.30333 -0.08426,1e-5 -0.151668,0.0169 -0.202217,0.0506 -0.05055,0.0337 -0.117965,0.0506 -0.202216,0.0506 -0.09269,10e-6 -0.235924,-0.0674 -0.429711,-0.20222 -0.185369,-0.1348 -0.311755,-0.20221 -0.379156,-0.20221 -0.126389,0 -0.219072,0.0421 -0.278048,0.12638 -0.09269,0.13482 -0.160092,0.21908 -0.202216,0.25277 -0.219072,0.0506 -0.497119,0.13061 -0.834144,0.24013 l 0,0.63193 c -2e-6,0.10112 0.02528,0.16852 0.07583,0.20222 0.02528,0.0168 0.05476,0.0253 0.08847,0.0253 0.01684,0.11796 0.01264,0.27805 -0.01264,0.48026 -0.03371,0.24435 -0.05056,0.3918 -0.05056,0.44235 0.539241,0.15167 0.867843,0.32861 0.985806,0.53082 0.07583,0.13481 0.320172,0.20222 0.733036,0.20221 0.522387,1e-5 0.943671,-0.1685 1.263853,-0.50554 0.32017,-0.34544 0.501323,-0.84677 0.543458,-1.50398" />
        <path
           style="font-size:11px;font-style:normal;font-variant:normal;font-weight:normal;font-stretch:normal;line-height:125%;letter-spacing:0px;word-spacing:0px;fill:#000000;fill-opacity:1;stroke:none;font-family:Love LetterTW;-inkscape-font-specification:Love LetterTW"
           inkscape:connector-curvature="0"
           id="path3101"
           d="m 26.595017,967.22448 c -7e-6,0.2949 -0.109542,0.50555 -0.328602,0.63193 -0.210649,0.0927 -0.421291,0.18537 -0.631927,0.27804 -0.151669,-0.1685 -0.231713,-0.37072 -0.240133,-0.60665 -5e-6,-0.21063 -5e-6,-0.42127 0,-0.63192 -0.05055,-0.0506 -0.15588,-0.0758 -0.315963,-0.0758 -0.24435,0 -0.433928,0.13481 -0.568734,0.40443 -5e-6,-0.0842 -0.05899,-0.18536 -0.17694,-0.30332 -0.109541,0.18537 -0.286477,0.3918 -0.530818,0.61928 -0.20222,0.18537 -0.40865,0.37074 -0.619289,0.5561 0.01684,0.059 0.02528,0.12639 0.02528,0.20222 -3e-6,0.14324 -0.02528,0.34124 -0.07583,0.59401 -0.05055,0.24435 -0.07583,0.39601 -0.07583,0.45498 -4e-6,0.10111 0.02106,0.17695 0.06319,0.2275 0.04212,0.0758 0.06319,0.11796 0.06319,0.12638 -0.03371,0.10955 -0.05055,0.23171 -0.05055,0.36652 -3e-6,0.53082 0.210639,0.79623 0.631927,0.79623 0.07583,0 0.113747,-0.008 0.113747,-0.0253 -5e-6,-0.008 -0.0043,-0.0168 -0.01264,-0.0253 -4e-6,-0.008 -4e-6,-0.0168 0,-0.0253 0.0084,-0.0169 0.04212,-0.0253 0.101109,-0.0253 0.160083,0 0.345449,0.0927 0.556095,0.27805 0.109531,0.11796 0.223276,0.23592 0.341241,0.35388 l 0,0.77095 c -0.168519,-0.0421 -0.42129,-0.0548 -0.758312,-0.0379 -0.505545,0.0337 -0.720401,0.0506 -0.644566,0.0506 -0.261199,0 -0.518183,-0.13903 -0.770951,-0.41707 -0.101108,0 -0.198006,0.0927 -0.290686,0.27804 -0.168517,0.0927 -0.556098,0.13903 -1.162746,0.13903 -0.438136,0 -0.770952,-0.0421 -0.998444,-0.12639 l 0,-0.55609 c 0.07583,-0.10953 0.219067,-0.25277 0.42971,-0.42971 0.02528,0 0.139023,0.1011 0.341241,0.30332 l 0.454987,0 c 0.05898,-0.10953 0.08847,-0.30754 0.08847,-0.59401 0.261194,-0.0421 0.433921,-0.12217 0.51818,-0.24013 0.05898,-0.0674 0.09267,-0.18537 0.101108,-0.35388 0.0084,-0.17694 0.0337,-0.30332 0.07583,-0.37916 -0.05055,-0.0505 -0.181156,-0.0758 -0.391795,-0.0758 0.193789,-0.30332 0.290684,-0.68248 0.290686,-1.13747 -2e-6,-0.16008 -0.06741,-0.33281 -0.202216,-0.51818 -0.134813,-0.18536 -0.202219,-0.31174 -0.202217,-0.37915 -2e-6,-0.0674 0.0337,-0.13902 0.101108,-0.21486 -0.539246,-0.34545 -0.964743,-0.49711 -1.276492,-0.45499 l -0.42971,-0.44235 0.113747,-0.87205 1.124829,0 c 0.08425,0 0.235918,0.10112 0.454988,0.30332 0.227491,0.20222 0.383366,0.30333 0.467626,0.30333 0.07583,0 0.176937,-0.0337 0.303325,-0.10111 0.126382,-0.0674 0.22749,-0.1011 0.303324,-0.10111 0.08425,1e-5 0.210639,0.0337 0.379157,0.10111 0.168509,0.0674 0.294895,0.10111 0.379156,0.10111 0.101108,0 0.172723,-0.0421 0.214855,-0.12639 0.05055,-0.0927 0.09689,-0.18536 0.139024,-0.27805 0.0337,0.0337 0.0674,0.10112 0.101108,0.20222 0.04212,0.10111 0.08004,0.16852 0.113747,0.20222 0.193787,-0.0927 0.332809,-0.13902 0.417072,-0.13903 0.05898,10e-6 0.117954,0.0127 0.176939,0.0379 0.02528,-0.0253 0.03792,-0.059 0.03792,-0.10111 -5e-6,-0.0253 -0.01264,-0.0716 -0.03792,-0.13903 -0.02528,-0.0674 -0.03792,-0.11373 -0.03792,-0.13902 0.09267,-0.0842 0.240126,-0.12638 0.442348,-0.12638 0.134805,0 0.248552,0.0168 0.341241,0.0506 0.101097,0.1938 0.155869,0.29912 0.164301,0.31596 0.08425,0.13482 0.181146,0.24014 0.290686,0.31597 0.08425,0.0168 0.193785,0.0674 0.328602,0.15166 0.160081,0.21907 0.240126,0.44657 0.240133,0.68248" />
        <path
           style="font-size:11px;font-style:normal;font-variant:normal;font-weight:normal;font-stretch:normal;line-height:125%;letter-spacing:0px;word-spacing:0px;fill:#000000;fill-opacity:1;stroke:none;font-family:Love LetterTW;-inkscape-font-specification:Love LetterTW"
           inkscape:connector-curvature="0"
           id="path3103"
           d="m 31.929072,964.1154 c -4e-6,0.2612 -0.101108,0.53925 -0.303324,0.83414 -0.202222,0.28648 -0.387586,0.42972 -0.556096,0.42971 -0.08427,1e-5 -0.235924,-0.0969 -0.454987,-0.29068 -0.278052,-0.25277 -0.442353,-0.396 -0.492903,-0.42971 -4e-6,-0.93525 0.151659,-1.40287 0.454987,-1.40288 l 1.03636,0 c 0.210637,0.44657 0.315959,0.73304 0.315963,0.85942 m 1.617733,7.36827 c -0.244351,0.37915 -0.379162,0.57716 -0.404433,0.59401 -0.05899,0.0506 -0.244351,0.0758 -0.556096,0.0758 -0.337033,0 -0.589803,-0.0674 -0.758312,-0.20222 l -0.252771,0.20222 -0.290686,-0.30333 c -0.134815,0.16852 -0.214859,0.2612 -0.240132,0.27805 -0.02528,0.0169 -0.117964,0.0253 -0.278048,0.0253 -0.0084,0 -0.176943,0.004 -0.505542,0.0126 -0.320179,0.0168 -0.598226,0.0211 -0.834143,0.0126 -0.33703,0 -0.610864,-0.0169 -0.821505,-0.0506 0.0084,-0.0758 -0.05898,-0.3286 -0.202217,-0.75831 0.370729,-0.12638 0.720395,-0.13481 1.048999,-0.0253 0.0674,-0.0674 0.126383,-0.1643 0.17694,-0.29068 0.05898,-0.13481 0.101108,-0.22328 0.126385,-0.26541 0.387579,-0.17694 0.55188,-0.38337 0.492903,-0.61929 0.09267,-0.0337 0.219065,-0.10531 0.379156,-0.21486 l 0,-1.3776 c -0.126389,-0.11795 -0.256986,-0.17693 -0.391795,-0.17694 -3e-6,-0.0253 0.01264,-0.08 0.03792,-0.1643 0.02528,-0.0927 0.03792,-0.18536 0.03792,-0.27804 -4e-6,-0.0843 -0.02107,-0.17273 -0.06319,-0.26541 -0.03371,-0.10111 -0.05477,-0.17694 -0.06319,-0.2275 -0.05899,-0.0674 -0.143239,-0.12638 -0.252771,-0.17694 -0.185368,-0.0674 -0.282263,-0.10531 -0.290686,-0.11374 -0.01685,-0.32018 -0.09689,-0.48026 -0.240132,-0.48027 -0.193793,1e-5 -0.341243,0.0379 -0.442349,0.11375 -0.06741,0.059 -0.1306,0.12218 -0.189578,0.18958 -0.08427,0.008 -0.307539,-0.17272 -0.669843,-0.54346 -1e-6,-0.0758 0.06319,-0.18957 0.189579,-0.34124 0.202215,-0.24434 0.315962,-0.38758 0.34124,-0.42971 0.143235,0.13482 0.383367,0.30333 0.720397,0.50554 0.15166,-0.059 0.286471,-0.22749 0.404433,-0.50554 0.0337,0.0337 0.07161,0.0843 0.113747,0.15166 0.04212,0.0674 0.08004,0.11797 0.113747,0.15166 0.05898,0.0169 0.143233,-0.11795 0.25277,-0.40443 l 0.315964,0 c 0.08425,10e-6 0.168511,0.0506 0.252771,0.15166 0.09267,0.10112 0.181148,0.15167 0.265409,0.15166 0.151658,10e-6 0.294895,-0.0674 0.42971,-0.20221 0.143233,0.5898 0.214851,1.25964 0.214855,2.00953 -4e-6,0.19379 -0.0084,0.48026 -0.02528,0.85942 -0.0084,0.37073 -0.01264,0.64878 -0.01264,0.83414 -5e-6,0.43814 0.02528,0.82993 0.07583,1.17538 0.176935,0.21065 0.446556,0.32018 0.808866,0.32861 0.471834,0.0168 0.766732,0.0548 0.884698,0.11374 -0.02529,0 -0.0084,0.0295 0.05055,0.0885 0.05898,0.059 0.08846,0.10533 0.08847,0.13903 -7e-6,0.0168 -0.0084,0.0337 -0.02528,0.0505 -7e-6,0.0421 -0.03371,0.0927 -0.101108,0.15166 -6e-6,0.008 0.02948,0.0253 0.08847,0.0506" />
        <path
           style="font-size:11px;font-style:normal;font-variant:normal;font-weight:normal;font-stretch:normal;line-height:125%;letter-spacing:0px;word-spacing:0px;fill:#000000;fill-opacity:1;stroke:none;font-family:Love LetterTW;-inkscape-font-specification:Love LetterTW"
           inkscape:connector-curvature="0"
           id="path3105"
           d="m 42.244686,971.24354 c -0.0084,0.0842 -0.113758,0.33281 -0.315963,0.74567 -0.08426,0.008 -0.265416,0.0337 -0.543457,0.0758 -0.244353,0.0421 -0.412866,0.0632 -0.505542,0.0632 -0.06741,0 -0.269628,-0.0168 -0.60665,-0.0506 -0.337033,-0.0421 -0.581378,-0.0632 -0.733035,-0.0632 -0.04213,-0.16009 -0.113747,-0.37916 -0.214855,-0.65721 0.547665,-0.26119 0.884692,-0.5266 1.011083,-0.79623 0.05898,-0.13481 0.08847,-0.45498 0.08847,-0.96052 -6e-6,-0.0506 -0.03371,-0.3286 -0.101109,-0.83415 -0.07584,-0.54766 -0.117965,-0.9521 -0.126385,-1.2133 -0.18537,-0.10111 -0.438141,-0.28647 -0.758312,-0.55609 -0.05055,-0.0168 -0.160094,-0.0253 -0.328602,-0.0253 -0.193796,0 -0.299116,0.0253 -0.315964,0.0758 -0.05055,0.14324 -0.0969,0.24014 -0.139024,0.29069 -0.185369,0.17694 -0.370734,0.35388 -0.556095,0.53082 -0.244349,0.23592 -0.404437,0.42971 -0.480265,0.58137 -0.06741,0.14324 -0.109541,0.32018 -0.126385,0.53082 -0.01685,0.15166 -0.02107,0.3286 -0.01264,0.53082 0.0084,0.30332 0.01264,0.43392 0.01264,0.39179 -3e-6,0.30333 0.08847,0.56031 0.265409,0.77095 0.0337,0.0337 0.31596,0.29911 0.846782,0.79623 -0.03371,0.0253 -0.134815,0.1306 -0.303325,0.31596 -0.134815,0.16009 -0.252774,0.24013 -0.353879,0.24013 0.0084,0 -0.193794,0.008 -0.606649,0.0253 -0.404436,0.008 -0.762528,0.0126 -1.074276,0.0126 -0.438138,-0.008 -0.800442,-0.0253 -1.086914,-0.0505 -2e-6,-0.0253 -0.02106,-0.0632 -0.06319,-0.11375 -0.0337,-0.059 -0.05055,-0.13481 -0.05055,-0.22749 -10e-7,-0.0927 0.130597,-0.2612 0.391794,-0.50555 0.269621,-0.25277 0.501327,-0.43392 0.69512,-0.54345 -0.01685,-0.0927 -0.02949,-0.25698 -0.03792,-0.49291 0.176938,-0.15166 0.286472,-0.34966 0.328602,-0.59401 0.01686,-0.059 0.0043,-0.14744 -0.03791,-0.26541 -0.04213,-0.12638 -0.06319,-0.21485 -0.06319,-0.26541 -2e-6,-0.0337 0.0043,-0.0632 0.01264,-0.0885 l 0.126385,0 c -2e-6,-0.059 -0.01264,-0.17693 -0.03792,-0.35387 -0.01685,-0.13481 -0.01685,-0.24013 0,-0.31597 -0.235921,-0.3286 -0.690908,-0.83414 -1.364962,-1.51662 0.04213,-0.20221 0.227493,-0.37915 0.556096,-0.53082 0.328601,-0.16008 0.661415,-0.24013 0.998444,-0.24013 0.168512,0 0.50554,0.16852 1.011083,0.50554 0.606647,-0.40443 1.179593,-0.60665 1.718842,-0.60665 0.404427,0 0.914181,0.21065 1.529263,0.63192 0.02526,0.30334 0.08004,0.64458 0.164301,1.02373 0.0674,0.10954 0.147442,0.27805 0.240132,0.50554 0.05054,0.26962 0.08004,0.69512 0.08847,1.27649 0.0084,0.60665 0.0337,1.05743 0.07583,1.35232 0.01684,0.11797 0.10953,0.2275 0.278048,0.32861 0.176931,0.0927 0.345445,0.18115 0.505541,0.26541" />
        <path
           style="font-size:11px;font-style:normal;font-variant:normal;font-weight:normal;font-stretch:normal;line-height:125%;letter-spacing:0px;word-spacing:0px;fill:#000000;fill-opacity:1;stroke:none;font-family:Love LetterTW;-inkscape-font-specification:Love LetterTW"
           inkscape:connector-curvature="0"
           id="path3107"
           d="m 48.688761,970.64952 c -6e-6,0.0758 -0.0084,0.11375 -0.02528,0.11375 -0.0084,0 -0.02529,-0.008 -0.05055,-0.0253 -0.01686,-0.0168 -0.03371,-0.0253 -0.05055,-0.0253 -0.01685,0 -0.02949,0.008 -0.03792,0.0253 0.0337,0.059 0.05054,0.1306 0.05055,0.21486 -6e-6,0.23592 -0.122178,0.50554 -0.366518,0.80887 -0.24435,0.29489 -0.45078,0.44234 -0.619288,0.44234 -0.08427,0 -0.134815,-0.0337 -0.151662,-0.1011 -0.01686,-0.0674 -0.06741,-0.10111 -0.151663,-0.10111 -0.08426,0 -0.134815,0.0337 -0.151662,0.10111 -0.01686,0.0674 -0.06741,0.1011 -0.151663,0.1011 -0.101108,0 -0.198008,-0.0506 -0.290686,-0.15166 -0.09269,-0.10111 -0.151666,-0.15166 -0.17694,-0.15166 -0.06741,-0.0169 -0.160091,0.11796 -0.278048,0.40443 -0.168517,-0.0337 -0.387584,-0.11374 -0.657204,-0.24013 -0.168516,-0.17694 -0.349668,-0.42971 -0.543457,-0.75831 -0.185367,-0.3286 -0.27805,-0.5561 -0.278048,-0.68248 l 0,-3.51352 c -0.176941,-0.19378 -0.446563,-0.30753 -0.808866,-0.34124 -0.2949,-0.0168 -0.594011,-0.0337 -0.897336,-0.0506 0,-0.10111 0.06319,-0.21906 0.189578,-0.35388 0,-0.0421 -0.101108,-0.16851 -0.303325,-0.37916 0.117959,-0.22748 0.324389,-0.34966 0.619288,-0.36651 0.42971,-0.0337 0.68248,-0.0632 0.758313,-0.0885 l 0.290686,0.30332 c 0.202214,-0.26119 0.303323,-0.57715 0.303325,-0.94789 -2e-6,-0.0758 -0.0043,-0.17272 -0.01264,-0.29069 -0.0084,-0.12637 -0.01264,-0.21063 -0.01264,-0.25277 -2e-6,-0.35387 0.227491,-0.53081 0.682481,-0.53082 0.09267,10e-6 0.189575,0.0211 0.290686,0.0632 0.10953,0.0337 0.172724,0.0506 0.189578,0.0506 0.143234,0.67407 0.214852,1.01109 0.214856,1.01108 0.16851,0.53083 0.408641,0.79624 0.720396,0.79623 0.08425,10e-6 0.219064,-0.0379 0.404433,-0.11374 0.303321,-0.11796 0.463408,-0.18115 0.480265,-0.18958 0.04212,0.25278 0.151657,0.64036 0.328602,1.16274 -0.109542,0.11797 -0.282266,0.17695 -0.51818,0.17694 -0.07583,10e-6 -0.193796,-0.004 -0.353879,-0.0126 -0.160093,-0.0168 -0.278053,-0.0253 -0.353879,-0.0253 -0.404437,0 -0.661421,0.16009 -0.770951,0.48026 -0.14324,0.39601 -0.223284,0.97739 -0.240132,1.74412 0.0084,-0.28647 0.01264,0.12218 0.01264,1.22594 -3e-6,0.0843 0.130595,0.24856 0.391795,0.4929 0.261192,0.24435 0.488686,0.40865 0.682481,0.4929 -0.0084,0 -0.01685,0.004 -0.02528,0.0126 -0.0084,0 -0.0043,0 0.01264,0 0.02528,0.008 0.07583,0.0126 0.151663,0.0126 0.18536,0 0.442344,-0.12638 0.770951,-0.37916 0.0337,-0.22749 0.0674,-0.40021 0.101108,-0.51818 0.0674,-0.26119 0.160083,-0.4297 0.278048,-0.50554 l 0.353879,0 0,0.85942" />
        <path
           style="font-size:11px;font-style:normal;font-variant:normal;font-weight:normal;font-stretch:normal;line-height:125%;letter-spacing:0px;word-spacing:0px;fill:#000000;fill-opacity:1;stroke:none;font-family:Love LetterTW;-inkscape-font-specification:Love LetterTW"
           inkscape:connector-curvature="0"
           id="path3109"
           d="m 56.647683,970.97813 c -7e-6,0.31175 -0.185372,0.59401 -0.556096,0.84678 -0.303331,0.21064 -0.572953,0.31596 -0.808867,0.31596 -0.06741,0 -0.231711,-0.0674 -0.492903,-0.20222 -0.2612,-0.13481 -0.450778,-0.20221 -0.568734,-0.20221 -0.08426,0 -0.32018,0.10111 -0.707758,0.30332 -0.387585,0.20222 -0.623504,0.30333 -0.707758,0.30333 -0.800442,0 -1.440795,-0.18115 -1.921058,-0.54346 -0.471839,-0.37073 -0.707758,-0.89733 -0.707758,-1.57982 0,-0.21906 0.168513,-0.57715 0.505542,-1.07427 0.320175,-0.46341 0.454986,-0.82572 0.404433,-1.08692 -0.151664,-0.1011 -0.307538,-0.20221 -0.467626,-0.30332 -0.09269,-0.0758 -0.139024,-0.21485 -0.139024,-0.41707 0,-0.0843 0.07162,-0.26541 0.214855,-0.54346 0.168513,-0.34545 0.278047,-0.58137 0.328602,-0.70776 0.160087,-0.0758 0.26962,-0.13059 0.328602,-0.1643 0.151661,-0.0842 0.282259,-0.18957 0.391795,-0.31596 0.707756,-0.0927 1.078485,-0.13902 1.112191,-0.13903 0.657201,10e-6 1.150102,0.15589 1.478709,0.46763 0.337023,0.31176 0.631922,0.8847 0.884698,1.71884 -0.03371,0.0337 -0.08426,0.0674 -0.151663,0.10111 -0.06741,0.0337 -0.117964,0.0674 -0.151662,0.10111 -0.0084,0.11796 0.113747,0.24013 0.366517,0.36651 -5e-6,0.0253 -0.0043,0.15588 -0.01264,0.3918 -0.01685,0.26963 -0.02529,0.50554 -0.02528,0.70776 -6e-6,1.00266 0.164295,1.50398 0.492903,1.50398 0.151656,0 0.328596,-0.20221 0.530818,-0.60665 0.101097,0.0506 0.189572,0.15588 0.26541,0.31597 0.07582,0.16009 0.113735,0.30754 0.113747,0.44235 m -2.843672,-3.85476 c -0.03371,-0.0337 -0.126388,-0.15166 -0.278047,-0.35388 -0.109542,-0.12638 -0.206434,-0.18957 -0.290687,-0.18958 -0.04213,10e-6 -0.143239,0.0337 -0.303325,0.10111 -0.151664,0.0674 -0.27805,0.10111 -0.379156,0.10111 -0.101108,10e-6 -0.256986,0.059 -0.467626,0.17694 -0.252773,0.13482 -0.417074,0.21486 -0.492903,0.24013 l 0,0.5561 c 0.101109,0.13481 0.202215,0.26963 0.303325,0.40443 0.126383,0.16009 0.244343,0.24014 0.353879,0.24013 0.07583,10e-6 0.244342,-0.0548 0.505542,-0.1643 0.269619,-0.10953 0.446558,-0.16851 0.530818,-0.17694 0.101109,-0.16008 0.206427,-0.32438 0.315964,-0.4929 0.10953,-0.17693 0.176936,-0.32438 0.202216,-0.44235 m 0.60665,2.12328 c -0.176944,-0.10953 -0.383373,-0.27805 -0.619288,-0.50555 -0.06741,-0.0168 -0.147454,0.0379 -0.240132,0.16431 l -0.442349,-0.10111 c -0.101108,0 -0.17273,0.0253 -0.214855,0.0758 -0.04213,0.0421 -0.06741,0.0674 -0.07583,0.0758 -0.117962,0.18537 -0.18958,0.2949 -0.214855,0.3286 -0.101108,0.15167 -0.198005,0.25278 -0.290686,0.30333 -0.185367,0.0758 -0.370732,0.15166 -0.556096,0.22749 -0.17694,0.0758 -0.26541,0.27805 -0.265409,0.60665 -10e-7,0.16009 0.172725,0.35388 0.51818,0.58137 0.345452,0.21907 0.627711,0.32861 0.846782,0.3286 0.278044,10e-6 0.505538,-0.0927 0.682481,-0.27804 0.278045,-0.28647 0.488686,-0.47184 0.631927,-0.5561 -5e-6,-0.0337 0.02528,-0.14323 0.07583,-0.3286 0.04212,-0.13481 0.05055,-0.24434 0.02528,-0.3286 -0.09269,-0.15166 -0.139028,-0.23592 -0.139024,-0.25277 0.101109,-0.13481 0.193787,-0.24856 0.278048,-0.34124" />
      </g>
      <g
         transform="translate(45.95156,16.785714)"
         id="g3185">
        <path
           style="font-size:11px;font-style:normal;font-variant:normal;font-weight:normal;font-stretch:normal;line-height:125%;letter-spacing:0px;word-spacing:0px;fill:#000000;fill-opacity:1;stroke:none;font-family:Love LetterTW;-inkscape-font-specification:Love LetterTW"
           inkscape:connector-curvature="0"
           id="path3111"
           d="m 69.736666,968.69055 c -7e-6,0.5561 -0.08005,1.0827 -0.240132,1.57982 -0.06741,0.21064 -0.223288,0.44235 -0.467626,0.69512 -0.244351,0.25277 -0.484482,0.4255 -0.720397,0.51818 -0.227498,0.0842 -0.564525,0.10532 -1.011083,0.0632 -0.497119,-0.0506 -0.842572,-0.059 -1.03636,-0.0253 -0.362308,0.0674 -0.652993,0.28648 -0.872059,0.65721 0.02528,0.0758 0.10953,0.14745 0.252771,0.21485 0.193788,0.10111 0.299109,0.15588 0.315963,0.1643 0.0084,0.0927 0.05898,0.25699 0.151663,0.49291 -0.03371,0.0168 -0.05056,0.0337 -0.05056,0.0506 -3e-6,0.0253 0.04212,0.0379 0.126386,0.0379 0.09267,-10e-6 0.240129,0.0168 0.442349,0.0506 0.210638,0.0421 0.366514,0.0632 0.467626,0.0632 0.0337,0.19379 0.0337,0.45499 0,0.78359 -1.095343,0.0927 -1.996892,0.13902 -2.704648,0.13903 -0.429711,-10e-6 -0.829931,-0.0169 -1.200661,-0.0506 0,-0.0169 -0.02106,-0.0463 -0.06319,-0.0885 -0.04213,-0.0337 -0.06319,-0.0969 -0.06319,-0.18958 0,-0.25277 0.105325,-0.44656 0.315963,-0.58137 0.126386,-0.0842 0.328602,-0.16009 0.60665,-0.22749 0.278047,-0.0674 0.446561,-0.12639 0.505542,-0.17694 -0.05055,-1.27228 -0.07583,-2.03059 -0.07583,-2.27494 -2e-6,-0.25277 0.02528,-0.40022 0.07583,-0.44235 -0.04213,-0.21906 -0.08425,-0.84678 -0.126386,-1.88314 -0.0337,-0.70775 -0.151663,-1.19644 -0.353879,-1.46607 -0.337028,-0.0421 -0.564522,-0.0969 -0.682481,-0.1643 -0.202216,-0.12638 -0.353879,-0.37073 -0.454987,-0.73304 0.10953,-0.17693 0.425497,-0.32438 0.94789,-0.44235 0.08425,10e-6 0.438135,0.0337 1.061637,0.10111 0.6235,0.0674 0.977378,0.10112 1.061638,0.10111 0.101108,10e-6 0.151659,-0.0253 0.151662,-0.0758 -3e-6,-0.0505 0.0043,-0.08 0.01264,-0.0885 0.176936,0.0253 0.425493,0.0295 0.745673,0.0126 0.421281,-0.0337 0.623497,-0.0505 0.60665,-0.0506 0.08425,10e-6 0.492899,0.12218 1.225938,0.36652 -0.0084,0.059 0.0379,0.14325 0.139024,0.25277 0.101109,0.10954 0.219063,0.18959 0.353879,0.24014 0.09267,0.0843 0.197998,0.24856 0.315964,0.4929 0.160082,0.70776 0.240125,1.33547 0.240132,1.88314 m -0.707758,1.30177 0,-2.07272 c -6e-6,-0.0927 -0.02107,-0.198 -0.06319,-0.31596 -0.04213,-0.15166 -0.06741,-0.24013 -0.07583,-0.26541 -0.08427,-0.0843 -0.294904,-0.28226 -0.631927,-0.59401 -0.202221,-0.18536 -0.353884,-0.3623 -0.454987,-0.53082 -0.08427,-0.0337 -0.21486,-0.0505 -0.391795,-0.0506 -0.168518,10e-6 -0.29069,0.0127 -0.366518,0.0379 -0.01686,0.008 -0.05477,0.0716 -0.113746,0.18958 -0.05055,0.11796 -0.126389,0.17694 -0.227494,0.17694 -0.08427,0 -0.126389,-0.0337 -0.126385,-0.10111 -4e-6,-0.0674 -0.04213,-0.1011 -0.126386,-0.10111 -0.143239,1e-5 -0.349669,0.17694 -0.619288,0.53082 -0.05055,0.17694 -0.05899,0.45078 -0.02528,0.8215 0.02528,0.39601 0.02106,0.67828 -0.01264,0.84679 -0.05899,0.28647 -0.223283,0.49711 -0.492903,0.63192 l 0,0.27805 c 0.227492,0.19379 0.484474,0.46763 0.770951,0.8215 0.353876,0.42129 0.589795,0.69091 0.707758,0.80887 -3e-6,-0.0506 0.02948,-0.11375 0.08847,-0.18958 0.0674,-0.0758 0.126382,-0.11374 0.176939,-0.11374 l 0.227494,0.21485 c 0.07583,-0.20221 0.227489,-0.33702 0.454987,-0.40443 0.235915,-0.0421 0.467622,-0.0842 0.69512,-0.12639 -6e-6,-0.21906 0.08846,-0.41285 0.265409,-0.58137 l 0.341241,0.0885" />
        <path
           style="font-size:11px;font-style:normal;font-variant:normal;font-weight:normal;font-stretch:normal;line-height:125%;letter-spacing:0px;word-spacing:0px;fill:#000000;fill-opacity:1;stroke:none;font-family:Love LetterTW;-inkscape-font-specification:Love LetterTW"
           inkscape:connector-curvature="0"
           id="path3113"
           d="m 77.519439,967.22448 c -7e-6,0.2949 -0.109542,0.50555 -0.328602,0.63193 -0.210649,0.0927 -0.421291,0.18537 -0.631927,0.27804 -0.151668,-0.1685 -0.231713,-0.37072 -0.240132,-0.60665 -6e-6,-0.21063 -6e-6,-0.42127 0,-0.63192 -0.05055,-0.0506 -0.155882,-0.0758 -0.315964,-0.0758 -0.244351,0 -0.433928,0.13481 -0.568734,0.40443 -6e-6,-0.0842 -0.05899,-0.18536 -0.17694,-0.30332 -0.109541,0.18537 -0.286477,0.3918 -0.530818,0.61928 -0.202221,0.18537 -0.40865,0.37074 -0.619289,0.5561 0.01684,0.059 0.02528,0.12639 0.02528,0.20222 -3e-6,0.14324 -0.02528,0.34124 -0.07583,0.59401 -0.05055,0.24435 -0.07583,0.39601 -0.07583,0.45498 -3e-6,0.10111 0.02106,0.17695 0.06319,0.2275 0.04212,0.0758 0.06319,0.11796 0.06319,0.12638 -0.03371,0.10955 -0.05055,0.23171 -0.05055,0.36652 -3e-6,0.53082 0.210639,0.79623 0.631927,0.79623 0.07583,0 0.113747,-0.008 0.113747,-0.0253 -5e-6,-0.008 -0.0043,-0.0168 -0.01264,-0.0253 -4e-6,-0.008 -4e-6,-0.0168 0,-0.0253 0.0084,-0.0169 0.04212,-0.0253 0.101109,-0.0253 0.160083,0 0.345448,0.0927 0.556095,0.27805 0.109531,0.11796 0.223276,0.23592 0.341241,0.35388 l 0,0.77095 c -0.168519,-0.0421 -0.42129,-0.0548 -0.758312,-0.0379 -0.505546,0.0337 -0.720402,0.0506 -0.644566,0.0506 -0.2612,0 -0.518183,-0.13903 -0.770951,-0.41707 -0.101108,0 -0.198006,0.0927 -0.290686,0.27804 -0.168516,0.0927 -0.556098,0.13903 -1.162745,0.13903 -0.438138,0 -0.770952,-0.0421 -0.998445,-0.12639 l 0,-0.55609 c 0.07583,-0.10953 0.219067,-0.25277 0.42971,-0.42971 0.02528,0 0.139023,0.1011 0.341241,0.30332 l 0.454987,0 c 0.05898,-0.10953 0.08847,-0.30754 0.08847,-0.59401 0.261194,-0.0421 0.43392,-0.12217 0.51818,-0.24013 0.05898,-0.0674 0.09267,-0.18537 0.101108,-0.35388 0.0084,-0.17694 0.0337,-0.30332 0.07583,-0.37916 -0.05055,-0.0505 -0.181155,-0.0758 -0.391795,-0.0758 0.193788,-0.30332 0.290683,-0.68248 0.290686,-1.13747 -3e-6,-0.16008 -0.06741,-0.33281 -0.202216,-0.51818 -0.134814,-0.18536 -0.202219,-0.31174 -0.202217,-0.37915 -2e-6,-0.0674 0.0337,-0.13902 0.101108,-0.21486 -0.539246,-0.34545 -0.964743,-0.49711 -1.276492,-0.45499 l -0.42971,-0.44235 0.113747,-0.87205 1.124829,0 c 0.08425,0 0.235917,0.10112 0.454988,0.30332 0.227491,0.20222 0.383366,0.30333 0.467626,0.30333 0.07583,0 0.176936,-0.0337 0.303325,-0.10111 0.126382,-0.0674 0.22749,-0.1011 0.303325,-0.10111 0.08425,1e-5 0.210638,0.0337 0.379156,0.10111 0.168509,0.0674 0.294895,0.10111 0.379156,0.10111 0.101108,0 0.172722,-0.0421 0.214855,-0.12639 0.05055,-0.0927 0.09689,-0.18536 0.139024,-0.27805 0.0337,0.0337 0.0674,0.10112 0.101108,0.20222 0.04212,0.10111 0.08004,0.16852 0.113747,0.20222 0.193786,-0.0927 0.33281,-0.13902 0.417072,-0.13903 0.05898,10e-6 0.117954,0.0127 0.176939,0.0379 0.02528,-0.0253 0.0379,-0.059 0.03792,-0.10111 -6e-6,-0.0253 -0.01264,-0.0716 -0.03792,-0.13903 -0.02528,-0.0674 -0.03793,-0.11373 -0.03791,-0.13902 0.09267,-0.0842 0.240126,-0.12638 0.442349,-0.12638 0.134805,0 0.248551,0.0168 0.34124,0.0506 0.101097,0.1938 0.155869,0.29912 0.164301,0.31596 0.08425,0.13482 0.181146,0.24014 0.290686,0.31597 0.08425,0.0168 0.193785,0.0674 0.328602,0.15166 0.160081,0.21907 0.240126,0.44657 0.240133,0.68248" />
        <path
           style="font-size:11px;font-style:normal;font-variant:normal;font-weight:normal;font-stretch:normal;line-height:125%;letter-spacing:0px;word-spacing:0px;fill:#000000;fill-opacity:1;stroke:none;font-family:Love LetterTW;-inkscape-font-specification:Love LetterTW"
           inkscape:connector-curvature="0"
           id="path3115"
           d="m 82.853495,964.1154 c -6e-6,0.2612 -0.101109,0.53925 -0.303326,0.83414 -0.202221,0.28648 -0.387585,0.42972 -0.556095,0.42971 -0.08427,1e-5 -0.235924,-0.0969 -0.454989,-0.29068 -0.27805,-0.25277 -0.442351,-0.396 -0.492903,-0.42971 -2e-6,-0.93525 0.151661,-1.40287 0.454988,-1.40288 l 1.03636,0 c 0.210638,0.44657 0.315959,0.73304 0.315965,0.85942 m 1.617731,7.36827 c -0.24435,0.37915 -0.379162,0.57716 -0.404432,0.59401 -0.05899,0.0506 -0.244351,0.0758 -0.556097,0.0758 -0.337031,0 -0.589802,-0.0674 -0.758312,-0.20222 l -0.252771,0.20222 -0.290686,-0.30333 c -0.134814,0.16852 -0.214859,0.2612 -0.240132,0.27805 -0.02528,0.0169 -0.117963,0.0253 -0.278047,0.0253 -0.0084,0 -0.176943,0.004 -0.505543,0.0126 -0.320177,0.0168 -0.598225,0.0211 -0.834143,0.0126 -0.337029,0 -0.610863,-0.0169 -0.821504,-0.0506 0.0084,-0.0758 -0.05899,-0.3286 -0.202217,-0.75831 0.370729,-0.12638 0.720395,-0.13481 1.048998,-0.0253 0.06741,-0.0674 0.126384,-0.1643 0.17694,-0.29068 0.05898,-0.13481 0.101108,-0.22328 0.126385,-0.26541 0.387579,-0.17694 0.55188,-0.38337 0.492903,-0.61929 0.09267,-0.0337 0.219065,-0.10531 0.379156,-0.21486 l 0,-1.3776 c -0.126388,-0.11795 -0.256986,-0.17693 -0.391794,-0.17694 -3e-6,-0.0253 0.01264,-0.08 0.03792,-0.1643 0.02528,-0.0927 0.03792,-0.18536 0.03792,-0.27804 -4e-6,-0.0843 -0.02107,-0.17273 -0.06319,-0.26541 -0.03371,-0.10111 -0.05477,-0.17694 -0.06319,-0.2275 -0.05899,-0.0674 -0.14324,-0.12638 -0.25277,-0.17694 -0.185369,-0.0674 -0.282264,-0.10531 -0.290687,-0.11374 -0.01685,-0.32018 -0.0969,-0.48026 -0.240132,-0.48027 -0.193794,1e-5 -0.341243,0.0379 -0.44235,0.11375 -0.06741,0.059 -0.1306,0.12218 -0.189577,0.18958 -0.08427,0.008 -0.307539,-0.17272 -0.669844,-0.54346 0,-0.0758 0.06319,-0.18957 0.189578,-0.34124 0.202216,-0.24434 0.315963,-0.38758 0.341241,-0.42971 0.143236,0.13482 0.383368,0.30333 0.720398,0.50554 0.15166,-0.059 0.286471,-0.22749 0.404432,-0.50554 0.0337,0.0337 0.07161,0.0843 0.113747,0.15166 0.04212,0.0674 0.08005,0.11797 0.113747,0.15166 0.05898,0.0169 0.143233,-0.11795 0.25277,-0.40443 l 0.315963,0 c 0.08425,10e-6 0.16851,0.0506 0.252772,0.15166 0.09267,0.10112 0.181148,0.15167 0.265409,0.15166 0.151658,10e-6 0.294895,-0.0674 0.429709,-0.20221 0.143233,0.5898 0.214852,1.25964 0.214855,2.00953 -3e-6,0.19379 -0.0084,0.48026 -0.02528,0.85942 -0.0084,0.37073 -0.01264,0.64878 -0.01264,0.83414 -5e-6,0.43814 0.02528,0.82993 0.07583,1.17538 0.176935,0.21065 0.446557,0.32018 0.808867,0.32861 0.471833,0.0168 0.766732,0.0548 0.884697,0.11374 -0.02529,0 -0.0084,0.0295 0.05055,0.0885 0.05898,0.059 0.08846,0.10533 0.08847,0.13903 -6e-6,0.0168 -0.0084,0.0337 -0.02528,0.0505 -7e-6,0.0421 -0.03371,0.0927 -0.101109,0.15166 -5e-6,0.008 0.02948,0.0253 0.08847,0.0506" />
        <path
           style="font-size:11px;font-style:normal;font-variant:normal;font-weight:normal;font-stretch:normal;line-height:125%;letter-spacing:0px;word-spacing:0px;fill:#000000;fill-opacity:1;stroke:none;font-family:Love LetterTW;-inkscape-font-specification:Love LetterTW"
           inkscape:connector-curvature="0"
           id="path3117"
           d="m 93.169108,971.24354 c -0.0084,0.0842 -0.113758,0.33281 -0.315963,0.74567 -0.08427,0.008 -0.265417,0.0337 -0.543457,0.0758 -0.244353,0.0421 -0.412867,0.0632 -0.505542,0.0632 -0.06741,0 -0.269629,-0.0168 -0.60665,-0.0506 -0.337034,-0.0421 -0.581378,-0.0632 -0.733035,-0.0632 -0.04213,-0.16009 -0.113758,-0.37916 -0.214855,-0.65721 0.547664,-0.26119 0.884691,-0.5266 1.011083,-0.79623 0.05898,-0.13481 0.08846,-0.45498 0.08847,-0.96052 -7e-6,-0.0506 -0.03371,-0.3286 -0.101108,-0.83415 -0.07584,-0.54766 -0.117966,-0.9521 -0.126386,-1.2133 -0.185372,-0.10111 -0.438141,-0.28647 -0.758312,-0.55609 -0.05055,-0.0168 -0.160094,-0.0253 -0.328602,-0.0253 -0.193796,0 -0.299117,0.0253 -0.315964,0.0758 -0.05055,0.14324 -0.0969,0.24014 -0.139023,0.29069 -0.18537,0.17694 -0.370735,0.35388 -0.556096,0.53082 -0.244349,0.23592 -0.404437,0.42971 -0.480265,0.58137 -0.06741,0.14324 -0.109541,0.32018 -0.126385,0.53082 -0.01685,0.15166 -0.02107,0.3286 -0.01264,0.53082 0.0084,0.30332 0.01264,0.43392 0.01264,0.39179 -3e-6,0.30333 0.08847,0.56031 0.265409,0.77095 0.0337,0.0337 0.315959,0.29911 0.846782,0.79623 -0.03371,0.0253 -0.134815,0.1306 -0.303325,0.31596 -0.134815,0.16009 -0.252775,0.24013 -0.353879,0.24013 0.0084,0 -0.193794,0.008 -0.606649,0.0253 -0.404437,0.008 -0.762528,0.0126 -1.074276,0.0126 -0.438138,-0.008 -0.800442,-0.0253 -1.086914,-0.0505 -2e-6,-0.0253 -0.02106,-0.0632 -0.06319,-0.11375 -0.0337,-0.059 -0.05055,-0.13481 -0.05055,-0.22749 -10e-7,-0.0927 0.130597,-0.2612 0.391794,-0.50555 0.269621,-0.25277 0.501328,-0.43392 0.69512,-0.54345 -0.01685,-0.0927 -0.02949,-0.25698 -0.03792,-0.49291 0.176938,-0.15166 0.286471,-0.34966 0.328602,-0.59401 0.01684,-0.059 0.0043,-0.14744 -0.03791,-0.26541 -0.04213,-0.12638 -0.06319,-0.21485 -0.06319,-0.26541 -2e-6,-0.0337 0.0043,-0.0632 0.01264,-0.0885 l 0.126385,0 c -2e-6,-0.059 -0.01264,-0.17693 -0.03792,-0.35387 -0.01686,-0.13481 -0.01686,-0.24013 0,-0.31597 -0.235921,-0.3286 -0.690908,-0.83414 -1.364962,-1.51662 0.04213,-0.20221 0.227493,-0.37915 0.556096,-0.53082 0.3286,-0.16008 0.661415,-0.24013 0.998444,-0.24013 0.168511,0 0.505539,0.16852 1.011084,0.50554 0.606645,-0.40443 1.179591,-0.60665 1.718841,-0.60665 0.404427,0 0.914181,0.21065 1.529263,0.63192 0.02527,0.30334 0.08004,0.64458 0.164301,1.02373 0.0674,0.10954 0.147442,0.27805 0.240132,0.50554 0.05054,0.26962 0.08004,0.69512 0.08847,1.27649 0.0084,0.60665 0.0337,1.05743 0.07583,1.35232 0.01684,0.11797 0.10953,0.2275 0.278048,0.32861 0.176931,0.0927 0.345446,0.18115 0.505541,0.26541" />
        <path
           style="font-size:11px;font-style:normal;font-variant:normal;font-weight:normal;font-stretch:normal;line-height:125%;letter-spacing:0px;word-spacing:0px;fill:#000000;fill-opacity:1;stroke:none;font-family:Love LetterTW;-inkscape-font-specification:Love LetterTW"
           inkscape:connector-curvature="0"
           id="path3119"
           d="m 99.613183,970.64952 c -6e-6,0.0758 -0.0084,0.11375 -0.02528,0.11375 -0.0084,0 -0.02529,-0.008 -0.05055,-0.0253 -0.01686,-0.0168 -0.03371,-0.0253 -0.05055,-0.0253 -0.01686,0 -0.02949,0.008 -0.03792,0.0253 0.0337,0.059 0.05055,0.1306 0.05055,0.21486 -6e-6,0.23592 -0.122179,0.50554 -0.366518,0.80887 -0.244351,0.29489 -0.450779,0.44234 -0.619288,0.44234 -0.08426,0 -0.134816,-0.0337 -0.151662,-0.1011 -0.01686,-0.0674 -0.06741,-0.10111 -0.151663,-0.10111 -0.08426,0 -0.134815,0.0337 -0.151662,0.10111 -0.01686,0.0674 -0.06741,0.1011 -0.151663,0.1011 -0.101108,0 -0.198008,-0.0506 -0.290686,-0.15166 -0.09269,-0.10111 -0.151667,-0.15166 -0.17694,-0.15166 -0.06741,-0.0169 -0.160092,0.11796 -0.278047,0.40443 -0.168518,-0.0337 -0.387585,-0.11374 -0.657204,-0.24013 -0.168517,-0.17694 -0.34967,-0.42971 -0.543458,-0.75831 -0.185367,-0.3286 -0.27805,-0.5561 -0.278047,-0.68248 l 0,-3.51352 c -0.176942,-0.19378 -0.446564,-0.30753 -0.808867,-0.34124 -0.294901,-0.0168 -0.594012,-0.0337 -0.897336,-0.0506 -10e-7,-0.10111 0.06319,-0.21906 0.189578,-0.35388 -10e-7,-0.0421 -0.101108,-0.16851 -0.303325,-0.37916 0.117959,-0.22748 0.324389,-0.34966 0.619288,-0.36651 0.42971,-0.0337 0.682479,-0.0632 0.758313,-0.0885 l 0.290686,0.30332 c 0.202214,-0.26119 0.303323,-0.57715 0.303325,-0.94789 -2e-6,-0.0758 -0.0043,-0.17272 -0.01264,-0.29069 -0.0084,-0.12637 -0.01264,-0.21063 -0.01264,-0.25277 -2e-6,-0.35387 0.227491,-0.53081 0.682481,-0.53082 0.09267,10e-6 0.189575,0.0211 0.290686,0.0632 0.109531,0.0337 0.172723,0.0506 0.189578,0.0506 0.143233,0.67407 0.214852,1.01109 0.214856,1.01108 0.168509,0.53083 0.408641,0.79624 0.720396,0.79623 0.08425,10e-6 0.219063,-0.0379 0.404434,-0.11374 0.303319,-0.11796 0.463408,-0.18115 0.480264,-0.18958 0.04212,0.25278 0.151657,0.64036 0.328602,1.16274 -0.109542,0.11797 -0.282266,0.17695 -0.51818,0.17694 -0.07584,10e-6 -0.193796,-0.004 -0.353879,-0.0126 -0.160093,-0.0168 -0.278053,-0.0253 -0.353879,-0.0253 -0.404438,0 -0.661421,0.16009 -0.770951,0.48026 -0.143241,0.39601 -0.223284,0.97739 -0.240132,1.74412 0.0084,-0.28647 0.01264,0.12218 0.01264,1.22594 -3e-6,0.0843 0.130594,0.24856 0.391795,0.4929 0.261193,0.24435 0.488685,0.40865 0.682481,0.4929 -0.0084,0 -0.01686,0.004 -0.02528,0.0126 -0.0084,0 -0.0043,0 0.01264,0 0.02528,0.008 0.07583,0.0126 0.151663,0.0126 0.18536,0 0.442343,-0.12638 0.770951,-0.37916 0.0337,-0.22749 0.0674,-0.40021 0.101108,-0.51818 0.0674,-0.26119 0.160082,-0.4297 0.278048,-0.50554 l 0.353879,0 0,0.85942" />
        <path
           style="font-size:11px;font-style:normal;font-variant:normal;font-weight:normal;font-stretch:normal;line-height:125%;letter-spacing:0px;word-spacing:0px;fill:#000000;fill-opacity:1;stroke:none;font-family:Love LetterTW;-inkscape-font-specification:Love LetterTW"
           inkscape:connector-curvature="0"
           id="path3121"
           d="m 106.8138,968.32403 c -1e-5,0.17695 -0.0506,0.34967 -0.15166,0.51818 -0.1264,0.1938 -0.27806,0.29069 -0.45499,0.29069 0.0842,0 -0.10536,-0.008 -0.56875,-0.0253 -0.2949,-0.008 -0.5266,10e-6 -0.69511,0.0253 -0.0169,0.008 -0.0843,-0.0211 -0.20222,-0.0885 -0.10954,-0.0758 -0.21064,-0.11375 -0.30332,-0.11375 -0.0758,10e-6 -0.18537,0.0337 -0.3286,0.10111 -0.13482,0.0674 -0.24435,0.10111 -0.32861,0.10111 -0.0843,0 -0.2949,-0.0337 -0.63192,-0.10111 -0.33703,-0.0674 -0.54768,-0.10111 -0.63193,-0.10111 -0.10953,10e-6 -0.20222,0.12639 -0.27805,0.37916 -0.0506,0.19379 -0.0758,0.33703 -0.0758,0.42971 0,0.35388 0.30332,0.69091 0.90998,1.01108 0.51396,0.26963 0.91839,0.40444 1.21329,0.40444 0.0758,0 0.24013,-0.0168 0.49291,-0.0506 0.25276,-0.0337 0.4297,-0.0548 0.53082,-0.0632 0.0337,-0.0927 0.14323,-0.28647 0.32859,-0.58137 0.13481,-0.21064 0.18958,-0.40865 0.1643,-0.59402 0.46341,-0.0337 0.79623,0.008 0.99845,0.12639 -0.1938,0.14324 -0.30754,0.38758 -0.34123,0.73304 -0.0674,0.12638 -0.23172,0.21485 -0.49292,0.2654 -0.1011,0.059 -0.17272,0.21065 -0.21484,0.45499 -0.34547,0.21907 -0.69092,0.44235 -1.03636,0.66984 -0.0758,0.0337 -0.30333,0.0506 -0.68249,0.0506 -0.0506,0 -0.1306,0.008 -0.24013,0.0253 -0.0927,0.008 -0.1643,0.008 -0.21485,0 -0.0758,-0.008 -0.13903,-0.0253 -0.18958,-0.0506 -0.28648,-0.14323 -0.69091,-0.37915 -1.2133,-0.70776 -0.0169,-0.0169 -0.0969,-0.12217 -0.24013,-0.31596 -0.12639,-0.16009 -0.24014,-0.2612 -0.34124,-0.30333 -0.36231,-1.40708 -0.54346,-2.30442 -0.54346,-2.692 0,-0.0843 0.0337,-0.21907 0.10111,-0.40444 0.0758,-0.19378 0.11796,-0.32017 0.12638,-0.37915 0.23592,-0.10953 0.41707,-0.24013 0.54346,-0.3918 0.0421,-0.37072 0.24013,-0.70354 0.59401,-0.99844 0.96053,-0.23591 1.60088,-0.35387 1.92106,-0.35388 0.10953,10e-6 0.29911,0.0506 0.56873,0.15166 0.26962,0.0927 0.48868,0.1938 0.6572,0.30333 0.17694,0.10112 0.34124,0.27384 0.4929,0.51818 0.0842,0.14324 0.20644,0.40865 0.36653,0.79622 -0.0253,0.10955 -0.0253,0.20223 0,0.27805 0.20221,0.11797 0.32438,0.2275 0.36652,0.3286 0.0169,0.0421 0.0253,0.1601 0.0253,0.35388 m -1.52927,-1.39024 c -0.24435,-0.0842 -0.59402,-0.12638 -1.049,-0.12638 -0.0253,0 -0.47605,0.0506 -1.35232,0.15166 -0.14324,0.24435 -0.31597,0.55189 -0.51818,0.92261 0.059,0.059 0.1643,0.13061 0.31596,0.21486 0.13481,-0.0337 0.26119,-0.0506 0.37916,-0.0506 0.21906,10e-6 0.42128,0.0632 0.60665,0.18958 0.18536,0.12639 0.27383,0.18959 0.26541,0.18958 0.0927,1e-5 0.2317,-0.0506 0.41707,-0.15166 0.18536,-0.10111 0.31596,-0.15166 0.39179,-0.15166 0.0758,0 0.17694,0.0337 0.30333,0.1011 0.1348,0.0674 0.21063,0.10111 0.22749,0.10111 0.0421,-0.16851 0.0548,-0.40021 0.0379,-0.69512 -0.0169,-0.53081 -0.0253,-0.76252 -0.0253,-0.69512" />
        <path
           style="font-size:11px;font-style:normal;font-variant:normal;font-weight:normal;font-stretch:normal;line-height:125%;letter-spacing:0px;word-spacing:0px;fill:#000000;fill-opacity:1;stroke:none;font-family:Love LetterTW;-inkscape-font-specification:Love LetterTW"
           inkscape:connector-curvature="0"
           id="path3123"
           d="m 114.7192,967.22448 c -1e-5,0.2949 -0.10949,0.50555 -0.3286,0.63193 -0.21065,0.0927 -0.4213,0.18537 -0.63193,0.27804 -0.15167,-0.1685 -0.23172,-0.37072 -0.24013,-0.60665 -1e-5,-0.21063 -1e-5,-0.42127 0,-0.63192 -0.0506,-0.0506 -0.15589,-0.0758 -0.31597,-0.0758 -0.24435,0 -0.43393,0.13481 -0.56874,0.40443 0,-0.0842 -0.0589,-0.18536 -0.17694,-0.30332 -0.10949,0.18537 -0.28647,0.3918 -0.5308,0.61928 -0.20223,0.18537 -0.40866,0.37074 -0.61929,0.5561 0.0169,0.059 0.0253,0.12639 0.0253,0.20222 0,0.14324 -0.0253,0.34124 -0.0758,0.59401 -0.0506,0.24435 -0.0758,0.39601 -0.0758,0.45498 -10e-6,0.10111 0.021,0.17695 0.0632,0.2275 0.0422,0.0758 0.0632,0.11796 0.0632,0.12638 -0.0337,0.10955 -0.0506,0.23171 -0.0506,0.36652 0,0.53082 0.21064,0.79623 0.63194,0.79623 0.0758,0 0.11375,-0.008 0.11375,-0.0253 0,-0.008 -0.005,-0.0168 -0.0126,-0.0253 -1e-5,-0.008 -1e-5,-0.0168 0,-0.0253 0.008,-0.0169 0.0422,-0.0253 0.10111,-0.0253 0.16008,0 0.34546,0.0927 0.55611,0.27805 0.10949,0.11796 0.22326,0.23592 0.34124,0.35388 l 0,0.77095 c -0.16853,-0.0421 -0.4213,-0.0548 -0.75832,-0.0379 -0.50555,0.0337 -0.7204,0.0506 -0.64457,0.0506 -0.26119,0 -0.51818,-0.13903 -0.77094,-0.41707 -0.10111,0 -0.19801,0.0927 -0.29069,0.27804 -0.16852,0.0927 -0.55611,0.13903 -1.16274,0.13903 -0.43815,0 -0.77097,-0.0421 -0.99845,-0.12639 l 0,-0.55609 c 0.0758,-0.10953 0.21906,-0.25277 0.42971,-0.42971 0.0253,0 0.13901,0.1011 0.34123,0.30332 l 0.45499,0 c 0.0589,-0.10953 0.0885,-0.30754 0.0885,-0.59401 0.2612,-0.0421 0.43393,-0.12217 0.51819,-0.24013 0.0589,-0.0674 0.0927,-0.18537 0.10111,-0.35388 0.008,-0.17694 0.0337,-0.30332 0.0758,-0.37916 -0.0506,-0.0505 -0.18116,-0.0758 -0.3918,-0.0758 0.19379,-0.30332 0.29068,-0.68248 0.29069,-1.13747 -1e-5,-0.16008 -0.0674,-0.33281 -0.20222,-0.51818 -0.13481,-0.18536 -0.20222,-0.31174 -0.20221,-0.37915 -1e-5,-0.0674 0.0337,-0.13902 0.10111,-0.21486 -0.53924,-0.34545 -0.96474,-0.49711 -1.27648,-0.45499 l -0.42973,-0.44235 0.11375,-0.87205 1.12482,0 c 0.0842,0 0.23593,0.10112 0.455,0.30332 0.22748,0.20222 0.38336,0.30333 0.46761,0.30333 0.0758,0 0.17694,-0.0337 0.30334,-0.10111 0.12637,-0.0674 0.22748,-0.1011 0.30332,-0.10111 0.0842,1e-5 0.21064,0.0337 0.37916,0.10111 0.16851,0.0674 0.29489,0.10111 0.37914,0.10111 0.10111,0 0.17273,-0.0421 0.21486,-0.12639 0.0506,-0.0927 0.0969,-0.18536 0.13903,-0.27805 0.0337,0.0337 0.0674,0.10112 0.10111,0.20222 0.0422,0.10111 0.0801,0.16852 0.11375,0.20222 0.19378,-0.0927 0.33281,-0.13902 0.41707,-0.13903 0.0589,10e-6 0.11795,0.0127 0.17693,0.0379 0.0253,-0.0253 0.0379,-0.059 0.0379,-0.10111 -2e-5,-0.0253 -0.0126,-0.0716 -0.0379,-0.13903 -0.0253,-0.0674 -0.0379,-0.11373 -0.0379,-0.13902 0.0927,-0.0842 0.24014,-0.12638 0.44236,-0.12638 0.1348,0 0.24855,0.0168 0.34124,0.0506 0.10111,0.1938 0.15587,0.29912 0.16431,0.31596 0.0842,0.13482 0.18114,0.24014 0.29068,0.31597 0.0842,0.0168 0.19379,0.0674 0.3286,0.15166 0.16008,0.21907 0.24013,0.44657 0.24014,0.68248" />
      </g>
      <g
         transform="translate(-12.85054,34.642857)"
         id="g3194">
        <path
           style="font-size:11px;font-style:normal;font-variant:normal;font-weight:normal;font-stretch:normal;line-height:125%;letter-spacing:0px;word-spacing:0px;fill:#000000;fill-opacity:1;stroke:none;font-family:Love LetterTW;-inkscape-font-specification:Love LetterTW"
           inkscape:connector-curvature="0"
           id="path3125"
           d="m 127.33819,967.46461 c -2e-5,0.0927 -0.2907,0.42972 -0.87206,1.01109 -0.1601,-0.26962 -0.37495,-0.45077 -0.64457,-0.54346 0.15166,-0.21907 0.20642,-0.48447 0.1643,-0.79623 -0.0253,-0.008 -0.0927,-0.0843 -0.20221,-0.22749 -0.0842,-0.1011 -0.17274,-0.15166 -0.26541,-0.15167 -0.0842,10e-6 -0.13061,0.0169 -0.13903,0.0506 0,0.0337 -0.0379,0.0506 -0.11374,0.0506 -0.0927,10e-6 -0.1601,-0.0421 -0.20222,-0.12638 -0.0758,-0.13481 -0.14746,-0.22749 -0.21486,-0.27805 -0.46342,0.34546 -0.8215,0.5561 -1.07427,0.63193 -0.0253,0.13481 -0.10536,0.31596 -0.24013,0.54345 -0.31176,0.25278 -0.46763,0.54768 -0.46763,0.8847 0,0.059 0.005,0.14745 0.0126,0.26541 0.008,0.10954 0.0126,0.19801 0.0126,0.26541 0,0.0674 0.0126,0.25277 0.0379,0.5561 0.0422,0.35388 0.0675,0.59401 0.0758,0.72039 0.61508,0.38759 1.0827,0.58138 1.40288,0.58137 0.0674,10e-6 0.15166,-0.0337 0.25277,-0.1011 0.1095,-0.0674 0.21064,-0.10111 0.30333,-0.10111 0.13481,0 0.26961,0.0674 0.40443,0.20221 0.15166,-0.0927 0.35809,-0.25276 0.61929,-0.48026 0.0253,-0.10953 0.0801,-0.25277 0.1643,-0.42971 l 0.77095,0.11375 c -1e-5,0.0337 -0.0422,0.08 -0.12638,0.13902 -0.1095,0.0843 -0.1938,0.15588 -0.25277,0.21486 0.0169,0.14323 -0.008,0.33281 -0.0758,0.56873 -0.0589,0.23592 -0.1306,0.41707 -0.21485,0.54346 -0.0589,0 -0.1601,0.059 -0.30333,0.17694 -0.17694,0.13481 -0.29912,0.21485 -0.36651,0.24013 -0.21908,0.0842 -0.57717,0.12638 -1.07428,0.12638 -0.98581,0 -1.75255,-0.34545 -2.30021,-1.03636 -0.48869,-0.61507 -0.73304,-1.38181 -0.73304,-2.30021 0,-0.0927 0.0337,-0.29068 0.10111,-0.59401 0.0927,-0.396 0.14745,-0.6235 0.1643,-0.68248 0.008,-0.0337 0.0716,-0.0969 0.18958,-0.18958 0.11795,-0.0927 0.18958,-0.16851 0.21485,-0.22749 0.1095,-0.23592 0.2317,-0.56873 0.36652,-0.99845 0.0927,-0.0421 0.25698,-0.12638 0.4929,-0.25277 0.0674,-0.0927 0.16851,-0.20642 0.30333,-0.34124 0.37916,-0.23591 0.81307,-0.35387 1.30177,-0.35388 0.0842,10e-6 0.31175,0.11797 0.68248,0.35388 0.37072,0.23593 0.59822,0.35389 0.68248,0.35388 0.0927,10e-6 0.16429,-0.0168 0.21486,-0.0506 0.0506,-0.0337 0.0885,-0.0506 0.11374,-0.0506 0.0842,0.15167 0.12638,0.37074 0.12639,0.65721 -1e-5,-0.0337 0.11795,0.08 0.35388,0.34124 0.23591,0.25277 0.35386,0.4929 0.35388,0.72039" />
        <path
           style="font-size:11px;font-style:normal;font-variant:normal;font-weight:normal;font-stretch:normal;line-height:125%;letter-spacing:0px;word-spacing:0px;fill:#000000;fill-opacity:1;stroke:none;font-family:Love LetterTW;-inkscape-font-specification:Love LetterTW"
           inkscape:connector-curvature="0"
           id="path3127"
           d="m 134.1391,968.65263 c 0,0.37916 -0.0842,0.93947 -0.25277,1.68093 -0.0589,0.27805 -0.40865,0.64035 -1.049,1.08691 -0.63193,0.44657 -1.05742,0.66985 -1.27649,0.66985 -0.0758,0 -0.1938,0.0168 -0.35388,0.0505 -0.15166,0.0337 -0.26963,0.0506 -0.35388,0.0506 -0.12639,0 -0.37494,-0.0716 -0.74568,-0.21486 -0.37073,-0.14324 -0.66562,-0.28647 -0.88469,-0.42971 -0.26963,-0.16851 -0.44235,-0.37073 -0.51818,-0.60665 -0.28647,-0.82572 -0.42971,-1.43658 -0.42971,-1.83259 0,-0.77516 0.0758,-1.35653 0.22749,-1.74412 0.23593,-0.59821 0.50133,-0.99422 0.79623,-1.18802 0.11796,-0.0758 0.3286,-0.14744 0.63193,-0.21485 0.41285,-0.0927 0.64456,-0.14745 0.69511,-0.1643 0.0506,-0.0168 0.14325,-0.0716 0.27805,-0.16431 0.10111,-0.0758 0.20222,-0.11373 0.30333,-0.11374 0.31174,0 0.67406,0.1306 1.08691,0.39179 0.0253,0.0169 0.17694,0.0674 0.45499,0.15166 0.25277,0.0758 0.40864,0.14746 0.46763,0.21486 0.19378,0.24435 0.38336,0.58138 0.56873,1.01108 0.23591,0.5224 0.35388,0.97739 0.35388,1.36496 m -1.11219,0.40444 c 0,-0.10111 -0.0169,-0.17694 -0.0506,-0.2275 -0.0337,-0.0506 -0.0674,-0.0927 -0.10111,-0.12638 0.0422,-0.19379 -0.0379,-0.46341 -0.24013,-0.80887 -0.16852,-0.31174 -0.31596,-0.51396 -0.44235,-0.60665 -0.31174,-0.23591 -0.60665,-0.35387 -0.88469,-0.35388 -0.20222,1e-5 -0.63193,0.11797 -1.28913,0.35388 -0.008,0.0674 -0.0632,0.17273 -0.16431,0.31597 -0.12638,0.18537 -0.20221,0.30333 -0.22749,0.35388 -0.0253,0.0505 -0.0379,0.26541 -0.0379,0.64456 0,0.46342 0.021,0.77938 0.0632,0.94789 0.0674,0.2612 0.26119,0.6235 0.58137,1.08692 0.0422,0.008 0.1643,0.0548 0.36652,0.13902 0.17694,0.0674 0.31174,0.10111 0.40443,0.10111 0.0842,0 0.15166,-0.0169 0.20222,-0.0506 0.0505,-0.0337 0.11796,-0.0506 0.20221,-0.0506 0.10111,0 0.16852,0.0169 0.20222,0.0506 0.0337,0.0253 0.0674,0.059 0.10111,0.10111 -0.15166,0.10111 -0.22749,0.24013 -0.22749,0.41707 0,0.0758 0.0126,0.15167 0.0379,0.2275 l 0.54346,0 c 0.28647,-0.12639 0.42971,-0.3286 0.42971,-0.60665 0,-0.16851 -0.0548,-0.38337 -0.1643,-0.64457 0.46341,-0.64877 0.69512,-1.07006 0.69512,-1.26385" />
        <path
           style="font-size:11px;font-style:normal;font-variant:normal;font-weight:normal;font-stretch:normal;line-height:125%;letter-spacing:0px;word-spacing:0px;fill:#000000;fill-opacity:1;stroke:none;font-family:Love LetterTW;-inkscape-font-specification:Love LetterTW"
           inkscape:connector-curvature="0"
           id="path3129"
           d="m 142.58777,971.24354 c -0.008,0.0842 -0.11375,0.33281 -0.31597,0.74567 -0.0842,0.008 -0.26542,0.0337 -0.54345,0.0758 -0.24435,0.0421 -0.41287,0.0632 -0.50555,0.0632 -0.0674,0 -0.26962,-0.0168 -0.60665,-0.0506 -0.33703,-0.0421 -0.58137,-0.0632 -0.73303,-0.0632 -0.0422,-0.16009 -0.11375,-0.37916 -0.21486,-0.65721 0.54767,-0.26119 0.8847,-0.5266 1.01109,-0.79623 0.0589,-0.13481 0.0885,-0.45498 0.0885,-0.96052 0,-0.0506 -0.0337,-0.3286 -0.10111,-0.83415 -0.0758,-0.54766 -0.11797,-0.9521 -0.12639,-1.2133 -0.18537,-0.10111 -0.43814,-0.28647 -0.75831,-0.55609 -0.0506,-0.0168 -0.1601,-0.0253 -0.3286,-0.0253 -0.1938,0 -0.29912,0.0253 -0.31597,0.0758 -0.0505,0.14324 -0.0968,0.24014 -0.13902,0.29069 -0.18537,0.17694 -0.37073,0.35388 -0.55609,0.53082 -0.24435,0.23592 -0.40444,0.42971 -0.48027,0.58137 -0.0674,0.14324 -0.10949,0.32018 -0.12638,0.53082 -0.0169,0.15166 -0.021,0.3286 -0.0126,0.53082 0.008,0.30332 0.0126,0.43392 0.0126,0.39179 0,0.30333 0.0885,0.56031 0.2654,0.77095 0.0337,0.0337 0.31597,0.29911 0.84679,0.79623 -0.0337,0.0253 -0.13482,0.1306 -0.30333,0.31596 -0.13482,0.16009 -0.25277,0.24013 -0.35388,0.24013 0.008,0 -0.19379,0.008 -0.60665,0.0253 -0.40443,0.008 -0.76253,0.0126 -1.07427,0.0126 -0.43813,-0.008 -0.80045,-0.0253 -1.08692,-0.0505 0,-0.0253 -0.021,-0.0632 -0.0632,-0.11375 -0.0337,-0.059 -0.0506,-0.13481 -0.0506,-0.22749 0,-0.0927 0.1306,-0.2612 0.39179,-0.50555 0.26963,-0.25277 0.50133,-0.43392 0.69512,-0.54345 -0.0169,-0.0927 -0.0295,-0.25698 -0.0379,-0.49291 0.17694,-0.15166 0.28647,-0.34966 0.32861,-0.59401 0.0169,-0.059 0.005,-0.14744 -0.0379,-0.26541 -0.0422,-0.12638 -0.0632,-0.21485 -0.0632,-0.26541 0,-0.0337 0.005,-0.0632 0.0126,-0.0885 l 0.12638,0 c 0,-0.059 -0.0126,-0.17693 -0.0379,-0.35387 -0.0169,-0.13481 -0.0169,-0.24013 0,-0.31597 -0.23592,-0.3286 -0.69091,-0.83414 -1.36497,-1.51662 0.0422,-0.20221 0.2275,-0.37915 0.5561,-0.53082 0.3286,-0.16008 0.66142,-0.24013 0.99844,-0.24013 0.16851,0 0.50555,0.16852 1.01109,0.50554 0.60665,-0.40443 1.17959,-0.60665 1.71884,-0.60665 0.40443,0 0.91418,0.21065 1.52926,0.63192 0.0253,0.30334 0.0801,0.64458 0.1643,1.02373 0.0674,0.10954 0.14745,0.27805 0.24014,0.50554 0.0505,0.26962 0.0801,0.69512 0.0885,1.27649 0.008,0.60665 0.0337,1.05743 0.0758,1.35232 0.0169,0.11797 0.10949,0.2275 0.27804,0.32861 0.17693,0.0927 0.34545,0.18115 0.50555,0.26541" />
        <path
           style="font-size:11px;font-style:normal;font-variant:normal;font-weight:normal;font-stretch:normal;line-height:125%;letter-spacing:0px;word-spacing:0px;fill:#000000;fill-opacity:1;stroke:none;font-family:Love LetterTW;-inkscape-font-specification:Love LetterTW"
           inkscape:connector-curvature="0"
           id="path3131"
           d="m 150.76649,965.30342 c -0.26964,0.21065 -0.45079,0.45921 -0.54346,0.74568 -0.1264,-0.30332 -0.33704,-0.52239 -0.63193,-0.65721 -0.008,-0.16008 -0.0295,-0.42127 -0.0632,-0.78359 -0.0927,-0.0927 -0.34547,-0.18114 -0.75831,-0.26541 -0.36232,-0.0758 -0.63616,-0.11373 -0.82151,-0.11374 -0.37917,0 -0.6235,0.1306 -0.73303,0.39179 -0.0506,0.11797 -0.0758,0.3244 -0.0758,0.61929 -2e-5,0.32861 0.0506,0.63193 0.15166,0.90997 0.0422,-0.059 0.0632,-0.12216 0.0632,-0.18957 0.0589,0 0.16429,-0.0169 0.31596,-0.0506 0.16008,-0.0421 0.28646,-0.0632 0.37916,-0.0632 0.0842,1e-5 0.1348,0.0506 0.15166,0.15166 0.0169,0.10112 0.0675,0.15167 0.15166,0.15166 0.0927,10e-6 0.15587,-0.0126 0.18958,-0.0379 0.0422,-0.0337 0.0716,-0.0505 0.0885,-0.0506 -1e-5,0.0169 0.0169,0.0885 0.0506,0.21486 0.0422,0.11797 0.0632,0.23593 0.0632,0.35388 -0.13482,0.0506 -0.23172,0.0969 -0.29069,0.13902 -0.16009,0.0927 -0.26963,0.21908 -0.3286,0.37916 -0.0337,0 -0.15167,-0.0969 -0.35388,-0.29069 -0.0422,10e-6 -0.0885,0.0379 -0.13902,0.11375 -0.0842,0.10954 -0.1306,0.17273 -0.13903,0.18958 l -0.20221,-0.20222 c -0.10111,0.12639 -0.15588,0.40865 -0.1643,0.84678 0.008,-0.23591 0.0126,0.12218 0.0126,1.07428 -2e-5,0.0253 -0.008,0.15166 -0.0253,0.37915 -0.0169,0.2275 -0.0253,0.42129 -0.0253,0.58138 -10e-6,0.70776 0.13481,1.06164 0.40443,1.06163 -0.0589,1e-5 0.1095,0.0126 0.50555,0.0379 0.24433,0.0169 0.45075,0.004 0.61928,-0.0379 0.16008,0.16009 0.24012,0.31176 0.24014,0.45499 -2e-5,0.50554 -0.52241,0.75831 -1.56718,0.75831 -0.0842,0 -0.49712,0.0169 -1.23858,0.0506 -0.74147,0.0337 -1.15432,0.0505 -1.23858,0.0505 -0.12639,0 -0.29069,-0.10953 -0.4929,-0.3286 l 0,-0.77095 c 0.0758,0.0168 0.21484,-0.0253 0.41707,-0.12639 0.20221,-0.1011 0.37073,-0.21485 0.50554,-0.34124 -0.0422,-0.0337 0.0169,-0.0506 0.17694,-0.0506 0.10111,0 0.16009,0.0211 0.17694,0.0632 0.0422,0.0927 0.0632,0.13903 0.0632,0.13903 0.1348,-0.14324 0.15586,-0.40443 0.0632,-0.78359 0.0253,-0.0168 0.14744,-0.0379 0.36652,-0.0632 0.16008,-0.0253 0.24012,-0.08 0.24013,-0.1643 -1e-5,-0.0927 -0.021,-0.20221 -0.0632,-0.3286 -0.0506,-0.18536 -0.0801,-0.29068 -0.0885,-0.31596 -0.008,-0.0253 -0.0842,-0.0632 -0.2275,-0.11375 -1e-5,-0.0168 -0.021,-0.18115 -0.0632,-0.4929 -0.0253,-0.21907 -0.0253,-0.38758 0,-0.50554 -0.21065,-0.23592 -0.29912,-0.46762 -0.26541,-0.69512 -0.32018,-0.0927 -0.64036,-0.18536 -0.96053,-0.27805 -0.57295,-0.19379 -0.85942,-0.396 -0.85942,-0.60665 0,-0.17693 0.1095,-0.3286 0.3286,-0.45499 0.17693,-0.1011 0.33703,-0.15165 0.48027,-0.15166 0.0842,10e-6 0.12637,0.0168 0.12638,0.0505 -1e-5,0.0337 0.0422,0.0506 0.12639,0.0506 0.15165,0 0.39178,-0.12638 0.72039,-0.37916 0.0506,-0.20221 0.10536,-0.50553 0.16431,-0.90997 0.10949,-0.0758 0.27803,-0.33281 0.50554,-0.77095 0.0337,-0.0674 0.18956,-0.20221 0.46762,-0.40444 0.32859,-0.24433 0.58558,-0.36651 0.77095,-0.36651 0.0842,0 0.13481,0.0337 0.15167,0.1011 0.0169,0.0674 0.0674,0.10112 0.15166,0.10111 0.0842,10e-6 0.16007,-0.0337 0.22749,-0.10111 0.0675,-0.0674 0.14323,-0.10109 0.2275,-0.1011 0.1685,0 0.39178,0.0253 0.66984,0.0758 0.37072,0.0758 0.64455,0.16852 0.8215,0.27804 0.2949,0.18538 0.58979,0.54768 0.8847,1.08692 -0.008,0.13482 0.0379,0.38337 0.13903,0.74567" />
        <path
           style="font-size:11px;font-style:normal;font-variant:normal;font-weight:normal;font-stretch:normal;line-height:125%;letter-spacing:0px;word-spacing:0px;fill:#000000;fill-opacity:1;stroke:none;font-family:Love LetterTW;-inkscape-font-specification:Love LetterTW"
           inkscape:connector-curvature="0"
           id="path3133"
           d="m 155.67319,964.1154 c 0,0.2612 -0.10111,0.53925 -0.30332,0.83414 -0.20222,0.28648 -0.38758,0.42972 -0.5561,0.42971 -0.0842,1e-5 -0.23592,-0.0969 -0.45499,-0.29068 -0.27804,-0.25277 -0.44235,-0.396 -0.4929,-0.42971 0,-0.93525 0.15166,-1.40287 0.45499,-1.40288 l 1.03636,0 c 0.21064,0.44657 0.31596,0.73304 0.31596,0.85942 m 1.61773,7.36827 c -0.24434,0.37915 -0.37915,0.57716 -0.40443,0.59401 -0.0589,0.0506 -0.24435,0.0758 -0.55609,0.0758 -0.33703,0 -0.5898,-0.0674 -0.75832,-0.20222 l -0.25277,0.20222 -0.29068,-0.30333 c -0.13481,0.16852 -0.21486,0.2612 -0.24014,0.27805 -0.0253,0.0169 -0.11796,0.0253 -0.27804,0.0253 -0.008,0 -0.17694,0.004 -0.50555,0.0126 -0.32018,0.0168 -0.59821,0.0211 -0.83414,0.0126 -0.33702,0 -0.61085,-0.0169 -0.8215,-0.0506 0.008,-0.0758 -0.0589,-0.3286 -0.20222,-0.75831 0.37073,-0.12638 0.7204,-0.13481 1.049,-0.0253 0.0674,-0.0674 0.12638,-0.1643 0.17694,-0.29068 0.0589,-0.13481 0.10111,-0.22328 0.12638,-0.26541 0.38758,-0.17694 0.55188,-0.38337 0.49291,-0.61929 0.0927,-0.0337 0.21907,-0.10531 0.37915,-0.21486 l 0,-1.3776 c -0.12638,-0.11795 -0.25699,-0.17693 -0.39179,-0.17694 0,-0.0253 0.0126,-0.08 0.0379,-0.1643 0.0253,-0.0927 0.0379,-0.18536 0.0379,-0.27804 0,-0.0843 -0.021,-0.17273 -0.0632,-0.26541 -0.0337,-0.10111 -0.0548,-0.17694 -0.0632,-0.2275 -0.0589,-0.0674 -0.14324,-0.12638 -0.25277,-0.17694 -0.18536,-0.0674 -0.28225,-0.10531 -0.29068,-0.11374 -0.0169,-0.32018 -0.0969,-0.48026 -0.24014,-0.48027 -0.19378,1e-5 -0.34124,0.0379 -0.44235,0.11375 -0.0674,0.059 -0.13059,0.12218 -0.18957,0.18958 -0.0842,0.008 -0.30753,-0.17272 -0.66985,-0.54346 0,-0.0758 0.0632,-0.18957 0.18958,-0.34124 0.20222,-0.24434 0.31597,-0.38758 0.34124,-0.42971 0.14324,0.13482 0.38338,0.30333 0.7204,0.50554 0.15166,-0.059 0.28648,-0.22749 0.40443,-0.50554 0.0337,0.0337 0.0716,0.0843 0.11375,0.15166 0.0422,0.0674 0.0801,0.11797 0.11375,0.15166 0.0589,0.0169 0.14324,-0.11795 0.25277,-0.40443 l 0.31596,0 c 0.0842,10e-6 0.16852,0.0506 0.25277,0.15166 0.0927,0.10112 0.18116,0.15167 0.26541,0.15166 0.15166,10e-6 0.2949,-0.0674 0.42971,-0.20221 0.14324,0.5898 0.21486,1.25964 0.21486,2.00953 0,0.19379 -0.008,0.48026 -0.0253,0.85942 -0.008,0.37073 -0.0126,0.64878 -0.0126,0.83414 0,0.43814 0.0253,0.82993 0.0758,1.17538 0.17694,0.21065 0.44657,0.32018 0.80887,0.32861 0.47184,0.0168 0.76673,0.0548 0.8847,0.11374 -0.0253,0 -0.008,0.0295 0.0506,0.0885 0.0589,0.059 0.0885,0.10533 0.0885,0.13903 0,0.0168 -0.008,0.0337 -0.0253,0.0505 0,0.0421 -0.0337,0.0927 -0.10111,0.15166 0,0.008 0.0295,0.0253 0.0885,0.0506" />
        <path
           style="font-size:11px;font-style:normal;font-variant:normal;font-weight:normal;font-stretch:normal;line-height:125%;letter-spacing:0px;word-spacing:0px;fill:#000000;fill-opacity:1;stroke:none;font-family:Love LetterTW;-inkscape-font-specification:Love LetterTW"
           inkscape:connector-curvature="0"
           id="path3135"
           d="m 165.14203,966.32714 c 0.0422,0.31176 -0.0632,0.53083 -0.31596,0.65721 -0.14324,0.0758 -0.41709,0.13903 -0.82151,0.18958 -0.35389,0.0421 -0.58138,0.10532 -0.68248,0.18957 0.11795,0.12639 0.21906,0.18959 0.30333,0.18958 -0.17696,0.24435 -0.26543,0.50555 -0.26541,0.78359 -2e-5,0.15167 0.021,0.30754 0.0632,0.46763 -0.16852,0.059 -0.40445,0.15588 -0.70776,0.29068 0.0422,0.0421 0.13059,0.11375 0.26541,0.21486 0.0842,0.0674 0.12637,0.13903 0.12639,0.21485 -0.32019,0.0421 -0.48028,0.14746 -0.48027,0.31597 -1e-5,0.0758 0.0295,0.1643 0.0885,0.26541 -0.0337,0.0337 -0.10111,0.0674 -0.20222,0.1011 -0.16009,0.0421 -0.2612,0.0716 -0.30332,0.0885 0.23591,0.0253 0.55608,0.0969 0.96053,0.21486 0.0927,0.31175 0.37914,0.46763 0.85942,0.46763 -0.0169,0.0421 -0.0253,0.0843 -0.0253,0.12638 -1e-5,0.12639 0.0632,0.23171 0.18958,0.31596 0.10111,0.0674 0.2022,0.13903 0.30332,0.21486 0.008,0.0674 0.0506,0.23171 0.12639,0.4929 0.0758,0.26963 0.11375,0.45078 0.11375,0.54346 -2e-5,0.32018 -0.0969,0.61929 -0.29069,0.89734 -0.0506,0.0674 -0.24014,0.27383 -0.56873,0.61928 -0.008,-0.008 -0.0548,-0.0716 -0.13903,-0.18957 -0.0505,-0.0758 -0.0969,-0.11375 -0.13902,-0.11375 -0.0589,0.059 -0.0885,0.18958 -0.0885,0.39179 -1.28071,0.21064 -1.95055,0.31597 -2.00953,0.31597 -0.0674,0 -0.10111,-0.0169 -0.10111,-0.0506 -1e-5,-0.008 -1e-5,-0.0253 0,-0.0506 0.008,-0.0169 0.0126,-0.0295 0.0126,-0.0379 -1e-5,-0.0421 -0.0379,-0.0632 -0.11375,-0.0632 -0.0589,0 -0.16009,0.0337 -0.30332,0.10111 -0.14324,0.0674 -0.2612,0.10111 -0.35388,0.10111 -0.15166,0 -0.37495,-0.0337 -0.66984,-0.10111 -0.36231,-0.0927 -0.64457,-0.20222 -0.84678,-0.3286 -0.0927,-0.059 -0.21065,-0.17694 -0.35388,-0.35388 -0.14324,-0.17694 -0.23171,-0.3286 -0.26541,-0.45499 -0.0169,-0.0505 -0.0422,-0.20222 -0.0758,-0.45499 -0.0253,-0.18536 -0.0758,-0.34124 -0.15167,-0.46762 0,-0.0674 0.0295,-0.14745 0.0885,-0.24013 0.0589,-0.0843 0.14323,-0.12639 0.25277,-0.12639 0.10111,0 0.15587,0.004 0.16431,0.0126 0.0253,0.059 0.0379,0.0885 0.0379,0.0885 l 0.15166,-0.1643 c -0.0337,-0.16852 -0.11374,-0.43393 -0.24013,-0.79623 0.0927,-0.18536 0.19378,-0.48869 0.30333,-0.90998 0.0253,-0.20221 0.008,-0.47604 -0.0506,-0.8215 -0.0758,-0.38758 -0.11375,-0.60243 -0.11375,-0.64457 0,-0.0674 0.021,-0.33281 0.0632,-0.79622 0.0422,-0.51397 0.0674,-0.87627 0.0758,-1.08692 0.26119,-0.23591 0.43391,-0.4634 0.51818,-0.68248 0.32017,-0.12638 0.51396,-0.34545 0.58137,-0.6572 0.0758,0 0.24013,-0.0169 0.4929,-0.0506 0.2612,-0.0421 0.44235,-0.0632 0.54346,-0.0632 0.30332,10e-6 0.50975,0.0126 0.61929,0.0379 0.0506,0.0168 0.13059,0.0674 0.24013,0.15166 0.1095,0.0758 0.21064,0.11376 0.30333,0.11375 0.0842,0 0.25276,-0.0168 0.50554,-0.0506 0.25276,-0.0337 0.42128,-0.0505 0.50554,-0.0506 0.0842,0 0.16008,-0.0505 0.22749,-0.15167 0.0675,-0.10109 0.14323,-0.15165 0.2275,-0.15166 0.0927,10e-6 0.22327,0.0211 0.39179,0.0632 0.17693,0.0421 0.29911,0.0632 0.36652,0.0632 -0.0253,0.0843 0.0337,0.22328 0.17694,0.41707 0.14323,0.1938 0.28647,0.32439 0.42971,0.39179 m -2.52771,1.64301 c -1e-5,-0.0927 -0.0337,-0.21906 -0.10111,-0.37915 -0.0927,-0.18536 -0.13903,-0.29068 -0.13902,-0.31597 -0.57295,-0.44655 -0.91419,-0.66983 -1.02372,-0.66984 -0.21065,1e-5 -0.48027,0.15588 -0.80887,0.46763 -0.32018,0.31175 -0.50133,0.5898 -0.54346,0.83414 0.19379,0.0337 0.31175,0.21907 0.35388,0.5561 0.0422,0.37916 0.10111,0.60244 0.17694,0.66984 l 1.33969,0 c 0.0589,-0.008 0.198,-0.17694 0.41707,-0.50554 0.21906,-0.33703 0.32859,-0.55609 0.3286,-0.65721 m -1.22594,2.18647 c -0.0674,0 -0.21065,-0.0253 -0.42971,-0.0758 -0.21065,-0.0505 -0.34967,-0.0758 -0.41707,-0.0758 -0.10111,0 -0.15166,0.0295 -0.15166,0.0885 0,0.2612 0.11795,0.54767 0.35388,0.85942 0.42971,-0.42971 0.64455,-0.69512 0.64456,-0.79623 m 2.74257,2.57826 c -0.11797,-0.16851 -0.21487,-0.37494 -0.29069,-0.61929 -0.0505,-0.21064 -0.10111,-0.41707 -0.15166,-0.61928 -0.0506,-0.0843 -0.16431,-0.12639 -0.34124,-0.12639 -0.11797,0.27805 -0.19801,0.41286 -0.24013,0.40443 -0.22751,-0.34545 -0.81309,-0.51818 -1.75676,-0.51818 -0.10111,0 -0.16852,0.0379 -0.20222,0.11375 -0.0674,0.12639 -0.10111,0.18958 -0.10111,0.18958 -0.0337,-0.0421 -0.0758,-0.0842 -0.12638,-0.12639 -0.0422,-0.0506 -0.11797,-0.0758 -0.2275,-0.0758 -0.0927,0 -0.24856,0.10111 -0.46762,0.30333 -0.2949,0.26119 -0.46342,0.40443 -0.50554,0.42971 0.008,0.0927 -0.021,0.21907 -0.0885,0.37915 -0.0169,-0.0168 -0.0548,-0.0758 -0.11375,-0.17694 -0.0422,-0.0758 -0.0801,-0.11374 -0.11375,-0.11374 0,0.11796 0.0169,0.27383 0.0506,0.46762 0.0422,0.19379 0.0632,0.3286 0.0632,0.40444 0,0.0758 -0.008,0.14323 -0.0253,0.20221 0.008,0 0.23592,0.1306 0.68248,0.3918 0.27805,0.16008 0.46763,0.24013 0.56874,0.24013 0.0589,0 0.17272,-0.0126 0.34124,-0.0379 0.10949,-0.0253 0.198,-0.0211 0.26541,0.0126 0,-0.0421 -0.005,-0.08 -0.0126,-0.11374 0.008,-0.0421 0.0632,-0.0632 0.1643,-0.0632 0.0842,0 0.12637,0.0337 0.12639,0.10111 -2e-5,0.0674 0.0422,0.10111 0.12638,0.10111 0.37072,0 0.64456,-0.10111 0.82151,-0.30333 0.19378,0.19379 0.30331,0.29069 0.3286,0.29069 0.0253,-0.13481 0.11795,-0.24013 0.27805,-0.31596 0.16008,-0.0674 0.32438,-0.13903 0.4929,-0.21486 0.11795,-0.16851 0.26961,-0.37073 0.45499,-0.60665" />
        <path
           style="font-size:11px;font-style:normal;font-variant:normal;font-weight:normal;font-stretch:normal;line-height:125%;letter-spacing:0px;word-spacing:0px;fill:#000000;fill-opacity:1;stroke:none;font-family:Love LetterTW;-inkscape-font-specification:Love LetterTW"
           inkscape:connector-curvature="0"
           id="path3137"
           d="m 173.84702,971.52158 c -0.1264,0.28648 -0.49712,0.42971 -1.11219,0.42971 -0.0842,0 -0.30334,-0.0505 -0.65721,-0.15166 -0.35389,-0.10111 -0.57295,-0.15166 -0.6572,-0.15166 -0.0842,0 -0.40443,0.0842 -0.96053,0.25277 -0.5561,0.16851 -0.87628,0.25277 -0.96053,0.25277 -0.90997,0 -1.55033,-0.24013 -1.92106,-0.7204 -0.28647,-0.3623 -0.45077,-0.93946 -0.4929,-1.73148 -0.0169,-0.71618 -0.0337,-1.42815 -0.0505,-2.13591 -0.0253,-0.0758 -0.0885,-0.20642 -0.18958,-0.39179 -0.0337,-0.0506 -0.12639,-0.11374 -0.27805,-0.18958 -0.14324,-0.0843 -0.24435,-0.15587 -0.30332,-0.21486 l 0,-0.8847 c 0.33702,-0.2022 0.6909,-0.30331 1.06163,-0.30332 0.10111,1e-5 0.29069,0.0379 0.56874,0.11375 0.42971,0.12639 0.6572,0.19379 0.68248,0.20221 0,0.10955 0.005,0.30755 0.0126,0.59401 0.0169,0.27806 0.0253,0.49713 0.0253,0.65721 0,0.57295 -0.0674,1.04479 -0.20221,1.41552 0,0.1011 -0.021,0.20643 -0.0632,0.31596 -0.0422,0.10954 -0.0632,0.18958 -0.0632,0.24013 l 0.20222,0.34124 c -0.0337,0.20222 -0.0506,0.37495 -0.0506,0.51818 0,0.38759 0.1095,0.63193 0.32861,0.73304 0.32016,0.15166 0.76673,0.22749 1.33968,0.22749 0.34545,0 0.53502,-0.1643 0.56874,-0.4929 0.0253,-0.0337 0.12216,-0.12639 0.29068,-0.27805 0.13481,-0.12638 0.20642,-0.22749 0.21486,-0.30333 0.0927,-0.63192 0.13902,-1.06584 0.13902,-1.30176 0,-0.0674 -0.0337,-0.25277 -0.10111,-0.5561 -0.0674,-0.34545 -0.11374,-0.62771 -0.13902,-0.84678 -0.20222,-0.0927 -0.50976,-0.28226 -0.92262,-0.56874 l -0.31596,0.29069 c -0.0337,-0.0674 -0.10949,-0.18957 -0.22749,-0.36652 -0.11797,-0.18536 -0.18958,-0.31596 -0.21486,-0.39179 0.16851,-0.2949 0.69091,-0.44234 1.56718,-0.44235 0.79201,10e-6 1.26806,0.10954 1.42816,0.3286 0.0169,0.11797 0.0169,0.29491 0,0.53082 -0.0253,0.32018 -0.0379,0.5224 -0.0379,0.60665 -1e-5,0.10954 0.0463,0.29912 0.13902,0.56873 0.10111,0.2612 0.15166,0.47606 0.15167,0.64457 -1e-5,0.15166 -0.0169,0.39601 -0.0506,0.73303 -0.0337,0.32861 -0.0505,0.56874 -0.0505,0.7204 -10e-6,0.47184 0.12217,0.77095 0.36652,0.89734 0.2022,0.0506 0.51396,0.1643 0.93525,0.34124 l 0,0.46762" />
        <path
           style="font-size:11px;font-style:normal;font-variant:normal;font-weight:normal;font-stretch:normal;line-height:125%;letter-spacing:0px;word-spacing:0px;fill:#000000;fill-opacity:1;stroke:none;font-family:Love LetterTW;-inkscape-font-specification:Love LetterTW"
           inkscape:connector-curvature="0"
           id="path3139"
           d="m 181.46647,967.22448 c 0,0.2949 -0.10949,0.50555 -0.3286,0.63193 -0.21064,0.0927 -0.42129,0.18537 -0.63193,0.27804 -0.15166,-0.1685 -0.23171,-0.37072 -0.24013,-0.60665 0,-0.21063 0,-0.42127 0,-0.63192 -0.0505,-0.0506 -0.15588,-0.0758 -0.31596,-0.0758 -0.24435,0 -0.43393,0.13481 -0.56874,0.40443 0,-0.0842 -0.0589,-0.18536 -0.17694,-0.30332 -0.10949,0.18537 -0.28647,0.3918 -0.53082,0.61928 -0.20221,0.18537 -0.40865,0.37074 -0.61928,0.5561 0.0169,0.059 0.0253,0.12639 0.0253,0.20222 0,0.14324 -0.0253,0.34124 -0.0758,0.59401 -0.0506,0.24435 -0.0758,0.39601 -0.0758,0.45498 0,0.10111 0.021,0.17695 0.0632,0.2275 0.0422,0.0758 0.0632,0.11796 0.0632,0.12638 -0.0337,0.10955 -0.0506,0.23171 -0.0506,0.36652 0,0.53082 0.21064,0.79623 0.63193,0.79623 0.0758,0 0.11375,-0.008 0.11375,-0.0253 0,-0.008 -0.005,-0.0168 -0.0126,-0.0253 -1e-5,-0.008 -1e-5,-0.0168 0,-0.0253 0.008,-0.0169 0.0422,-0.0253 0.10111,-0.0253 0.16008,0 0.34545,0.0927 0.55609,0.27805 0.1095,0.11796 0.22328,0.23592 0.34124,0.35388 l 0,0.77095 c -0.16852,-0.0421 -0.42129,-0.0548 -0.75831,-0.0379 -0.50554,0.0337 -0.7204,0.0506 -0.64457,0.0506 -0.26119,0 -0.51818,-0.13903 -0.77095,-0.41707 -0.10111,0 -0.198,0.0927 -0.29068,0.27804 -0.16851,0.0927 -0.5561,0.13903 -1.16275,0.13903 -0.43813,0 -0.77095,-0.0421 -0.99844,-0.12639 l 0,-0.55609 c 0.0758,-0.10953 0.21907,-0.25277 0.42971,-0.42971 0.0253,0 0.13902,0.1011 0.34124,0.30332 l 0.45498,0 c 0.059,-0.10953 0.0885,-0.30754 0.0885,-0.59401 0.26121,-0.0421 0.43393,-0.12217 0.51818,-0.24013 0.059,-0.0674 0.0927,-0.18537 0.10111,-0.35388 0.008,-0.17694 0.0337,-0.30332 0.0758,-0.37916 -0.0505,-0.0505 -0.18114,-0.0758 -0.39179,-0.0758 0.19379,-0.30332 0.29069,-0.68248 0.29069,-1.13747 0,-0.16008 -0.0675,-0.33281 -0.20222,-0.51818 -0.13481,-0.18536 -0.20222,-0.31174 -0.20222,-0.37915 0,-0.0674 0.0337,-0.13902 0.10111,-0.21486 -0.53924,-0.34545 -0.96473,-0.49711 -1.27649,-0.45499 l -0.42971,-0.44235 0.11374,-0.87205 1.12483,0 c 0.0842,0 0.23593,0.10112 0.45499,0.30332 0.2275,0.20222 0.38337,0.30333 0.46763,0.30333 0.0758,0 0.17694,-0.0337 0.30332,-0.10111 0.12639,-0.0674 0.2275,-0.1011 0.30333,-0.10111 0.0842,1e-5 0.21065,0.0337 0.37917,0.10111 0.1685,0.0674 0.29489,0.10111 0.37914,0.10111 0.10111,0 0.17272,-0.0421 0.21486,-0.12639 0.0506,-0.0927 0.0968,-0.18536 0.13902,-0.27805 0.0337,0.0337 0.0674,0.10112 0.10111,0.20222 0.0422,0.10111 0.0801,0.16852 0.11374,0.20222 0.1938,-0.0927 0.33282,-0.13902 0.41708,-0.13903 0.0589,10e-6 0.11796,0.0127 0.17694,0.0379 0.0253,-0.0253 0.0379,-0.059 0.0379,-0.10111 0,-0.0253 -0.0126,-0.0716 -0.0379,-0.13903 -0.0253,-0.0674 -0.0379,-0.11373 -0.0379,-0.13902 0.0927,-0.0842 0.24013,-0.12638 0.44235,-0.12638 0.13481,0 0.24855,0.0168 0.34124,0.0506 0.10111,0.1938 0.15588,0.29912 0.1643,0.31596 0.0842,0.13482 0.18116,0.24014 0.29069,0.31597 0.0842,0.0168 0.19379,0.0674 0.3286,0.15166 0.16008,0.21907 0.24013,0.44657 0.24013,0.68248" />
        <path
           style="font-size:11px;font-style:normal;font-variant:normal;font-weight:normal;font-stretch:normal;line-height:125%;letter-spacing:0px;word-spacing:0px;fill:#000000;fill-opacity:1;stroke:none;font-family:Love LetterTW;-inkscape-font-specification:Love LetterTW"
           inkscape:connector-curvature="0"
           id="path3141"
           d="m 189.30296,970.97813 c -1e-5,0.31175 -0.18537,0.59401 -0.55609,0.84678 -0.30333,0.21064 -0.57295,0.31596 -0.80887,0.31596 -0.0674,0 -0.23171,-0.0674 -0.4929,-0.20222 -0.26121,-0.13481 -0.45079,-0.20221 -0.56874,-0.20221 -0.0842,0 -0.32018,0.10111 -0.70776,0.30332 -0.38758,0.20222 -0.6235,0.30333 -0.70775,0.30333 -0.80045,0 -1.4408,-0.18115 -1.92106,-0.54346 -0.47184,-0.37073 -0.70776,-0.89733 -0.70776,-1.57982 0,-0.21906 0.16852,-0.57715 0.50554,-1.07427 0.32018,-0.46341 0.45499,-0.82572 0.40444,-1.08692 -0.15167,-0.1011 -0.30755,-0.20221 -0.46763,-0.30332 -0.0927,-0.0758 -0.13902,-0.21485 -0.13902,-0.41707 0,-0.0843 0.0716,-0.26541 0.21485,-0.54346 0.16852,-0.34545 0.27805,-0.58137 0.3286,-0.70776 0.16009,-0.0758 0.26963,-0.13059 0.3286,-0.1643 0.15167,-0.0842 0.28227,-0.18957 0.3918,-0.31596 0.70776,-0.0927 1.07848,-0.13902 1.11219,-0.13903 0.6572,10e-6 1.15011,0.15589 1.47871,0.46763 0.33702,0.31176 0.63193,0.8847 0.8847,1.71884 -0.0337,0.0337 -0.0842,0.0674 -0.15167,0.10111 -0.0674,0.0337 -0.11796,0.0674 -0.15166,0.10111 -0.008,0.11796 0.11375,0.24013 0.36652,0.36651 0,0.0253 -0.005,0.15588 -0.0126,0.3918 -0.0169,0.26963 -0.0253,0.50554 -0.0253,0.70776 0,1.00266 0.16431,1.50398 0.49291,1.50398 0.15166,0 0.32859,-0.20221 0.53082,-0.60665 0.1011,0.0506 0.18956,0.15588 0.26541,0.31597 0.0758,0.16009 0.11374,0.30754 0.11374,0.44235 m -2.84367,-3.85476 c -0.0337,-0.0337 -0.12638,-0.15166 -0.27805,-0.35388 -0.10949,-0.12638 -0.20643,-0.18957 -0.29068,-0.18958 -0.0422,10e-6 -0.14324,0.0337 -0.30333,0.10111 -0.15166,0.0674 -0.27805,0.10111 -0.37915,0.10111 -0.10111,10e-6 -0.25699,0.059 -0.46763,0.17694 -0.25277,0.13482 -0.41707,0.21486 -0.4929,0.24013 l 0,0.5561 c 0.10111,0.13481 0.20221,0.26963 0.30332,0.40443 0.12639,0.16009 0.24434,0.24014 0.35388,0.24013 0.0758,10e-6 0.24434,-0.0548 0.50554,-0.1643 0.26962,-0.10953 0.44656,-0.16851 0.53082,-0.17694 0.10111,-0.16008 0.20642,-0.32438 0.31596,-0.4929 0.1095,-0.17693 0.17694,-0.32438 0.20222,-0.44235 m 0.60665,2.12328 c -0.17694,-0.10953 -0.38337,-0.27805 -0.61929,-0.50555 -0.0674,-0.0168 -0.14745,0.0379 -0.24013,0.16431 l -0.44235,-0.10111 c -0.10111,0 -0.17273,0.0253 -0.21485,0.0758 -0.0422,0.0421 -0.0675,0.0674 -0.0758,0.0758 -0.11796,0.18537 -0.18957,0.2949 -0.21485,0.3286 -0.10111,0.15167 -0.19801,0.25278 -0.29069,0.30333 -0.18536,0.0758 -0.37073,0.15166 -0.55609,0.22749 -0.17694,0.0758 -0.26541,0.27805 -0.26541,0.60665 0,0.16009 0.17272,0.35388 0.51818,0.58137 0.34544,0.21907 0.62771,0.32861 0.84678,0.3286 0.27805,10e-6 0.50554,-0.0927 0.68248,-0.27804 0.27805,-0.28647 0.48869,-0.47184 0.63193,-0.5561 0,-0.0337 0.0253,-0.14323 0.0758,-0.3286 0.0422,-0.13481 0.0506,-0.24434 0.0253,-0.3286 -0.0927,-0.15166 -0.13903,-0.23592 -0.13903,-0.25277 0.10111,-0.13481 0.19379,-0.24856 0.27805,-0.34124" />
        <path
           style="font-size:11px;font-style:normal;font-variant:normal;font-weight:normal;font-stretch:normal;line-height:125%;letter-spacing:0px;word-spacing:0px;fill:#000000;fill-opacity:1;stroke:none;font-family:Love LetterTW;-inkscape-font-specification:Love LetterTW"
           inkscape:connector-curvature="0"
           id="path3143"
           d="m 196.10546,970.64952 c -1e-5,0.0758 -0.008,0.11375 -0.0253,0.11375 -0.008,0 -0.0253,-0.008 -0.0506,-0.0253 -0.0169,-0.0168 -0.0337,-0.0253 -0.0506,-0.0253 -0.0169,0 -0.0295,0.008 -0.0379,0.0253 0.0337,0.059 0.0506,0.1306 0.0506,0.21486 -1e-5,0.23592 -0.12218,0.50554 -0.36651,0.80887 -0.24435,0.29489 -0.45079,0.44234 -0.61929,0.44234 -0.0842,0 -0.13482,-0.0337 -0.15167,-0.1011 -0.0169,-0.0674 -0.0674,-0.10111 -0.15166,-0.10111 -0.0842,0 -0.13482,0.0337 -0.15166,0.10111 -0.0169,0.0674 -0.0674,0.1011 -0.15166,0.1011 -0.10111,0 -0.19801,-0.0506 -0.29069,-0.15166 -0.0927,-0.10111 -0.15166,-0.15166 -0.17694,-0.15166 -0.0674,-0.0169 -0.16009,0.11796 -0.27805,0.40443 -0.16851,-0.0337 -0.38759,-0.11374 -0.6572,-0.24013 -0.16852,-0.17694 -0.34967,-0.42971 -0.54346,-0.75831 -0.18537,-0.3286 -0.27805,-0.5561 -0.27805,-0.68248 l 0,-3.51352 c -0.17694,-0.19378 -0.44656,-0.30753 -0.80886,-0.34124 -0.29491,-0.0168 -0.59401,-0.0337 -0.89734,-0.0506 0,-0.10111 0.0632,-0.21906 0.18958,-0.35388 0,-0.0421 -0.10111,-0.16851 -0.30333,-0.37916 0.11796,-0.22748 0.32439,-0.34966 0.61929,-0.36651 0.42971,-0.0337 0.68248,-0.0632 0.75832,-0.0885 l 0.29068,0.30332 c 0.20222,-0.26119 0.30333,-0.57715 0.30333,-0.94789 0,-0.0758 -0.005,-0.17272 -0.0126,-0.29069 -0.008,-0.12637 -0.0126,-0.21063 -0.0126,-0.25277 0,-0.35387 0.22749,-0.53081 0.68248,-0.53082 0.0927,10e-6 0.18958,0.0211 0.29069,0.0632 0.10949,0.0337 0.17272,0.0506 0.18958,0.0506 0.14322,0.67407 0.21485,1.01109 0.21485,1.01108 0.16851,0.53083 0.40864,0.79624 0.7204,0.79623 0.0842,10e-6 0.21906,-0.0379 0.40443,-0.11374 0.30331,-0.11796 0.46341,-0.18115 0.48026,-0.18958 0.0422,0.25278 0.15166,0.64036 0.32861,1.16274 -0.1095,0.11797 -0.28227,0.17695 -0.51818,0.17694 -0.0758,10e-6 -0.1938,-0.004 -0.35388,-0.0126 -0.1601,-0.0168 -0.27806,-0.0253 -0.35388,-0.0253 -0.40443,0 -0.66142,0.16009 -0.77095,0.48026 -0.14324,0.39601 -0.22329,0.97739 -0.24013,1.74412 0.008,-0.28647 0.0126,0.12218 0.0126,1.22594 0,0.0843 0.13059,0.24856 0.3918,0.4929 0.26119,0.24435 0.48868,0.40865 0.68248,0.4929 -0.008,0 -0.0169,0.004 -0.0253,0.0126 -0.008,0 -0.005,0 0.0126,0 0.0253,0.008 0.0758,0.0126 0.15166,0.0126 0.18537,0 0.44234,-0.12638 0.77095,-0.37916 0.0337,-0.22749 0.0675,-0.40021 0.10111,-0.51818 0.0674,-0.26119 0.16009,-0.4297 0.27805,-0.50554 l 0.35388,0 0,0.85942" />
        <path
           style="font-size:11px;font-style:normal;font-variant:normal;font-weight:normal;font-stretch:normal;line-height:125%;letter-spacing:0px;word-spacing:0px;fill:#000000;fill-opacity:1;stroke:none;font-family:Love LetterTW;-inkscape-font-specification:Love LetterTW"
           inkscape:connector-curvature="0"
           id="path3145"
           d="m 201.56195,964.1154 c -1e-5,0.2612 -0.10111,0.53925 -0.30332,0.83414 -0.20223,0.28648 -0.38759,0.42972 -0.5561,0.42971 -0.0842,1e-5 -0.23592,-0.0969 -0.45498,-0.29068 -0.27806,-0.25277 -0.44237,-0.396 -0.49291,-0.42971 -1e-5,-0.93525 0.15165,-1.40287 0.45499,-1.40288 l 1.03636,0 c 0.21064,0.44657 0.31595,0.73304 0.31596,0.85942 m 1.61774,7.36827 c -0.24436,0.37915 -0.37917,0.57716 -0.40444,0.59401 -0.0589,0.0506 -0.24435,0.0758 -0.55609,0.0758 -0.33704,0 -0.58981,-0.0674 -0.75832,-0.20222 l -0.25277,0.20222 -0.29068,-0.30333 c -0.13482,0.16852 -0.21487,0.2612 -0.24013,0.27805 -0.0253,0.0169 -0.11797,0.0253 -0.27805,0.0253 -0.008,0 -0.17695,0.004 -0.50554,0.0126 -0.32018,0.0168 -0.59823,0.0211 -0.83415,0.0126 -0.33703,0 -0.61086,-0.0169 -0.8215,-0.0506 0.008,-0.0758 -0.0589,-0.3286 -0.20222,-0.75831 0.37072,-0.12638 0.7204,-0.13481 1.049,-0.0253 0.0674,-0.0674 0.12637,-0.1643 0.17694,-0.29068 0.0589,-0.13481 0.10111,-0.22328 0.12638,-0.26541 0.38758,-0.17694 0.55188,-0.38337 0.49291,-0.61929 0.0927,-0.0337 0.21906,-0.10531 0.37915,-0.21486 l 0,-1.3776 c -0.12639,-0.11795 -0.25698,-0.17693 -0.39179,-0.17694 -1e-5,-0.0253 0.0126,-0.08 0.0379,-0.1643 0.0253,-0.0927 0.0379,-0.18536 0.0379,-0.27804 -1e-5,-0.0843 -0.021,-0.17273 -0.0632,-0.26541 -0.0337,-0.10111 -0.0548,-0.17694 -0.0632,-0.2275 -0.0589,-0.0674 -0.14324,-0.12638 -0.25277,-0.17694 -0.18537,-0.0674 -0.28226,-0.10531 -0.29068,-0.11374 -0.0169,-0.32018 -0.0969,-0.48026 -0.24013,-0.48027 -0.1938,1e-5 -0.34124,0.0379 -0.44235,0.11375 -0.0675,0.059 -0.13061,0.12218 -0.18958,0.18958 -0.0842,0.008 -0.30754,-0.17272 -0.66984,-0.54346 0,-0.0758 0.0632,-0.18957 0.18957,-0.34124 0.20222,-0.24434 0.31597,-0.38758 0.34124,-0.42971 0.14323,0.13482 0.38337,0.30333 0.7204,0.50554 0.15165,-0.059 0.28647,-0.22749 0.40443,-0.50554 0.0337,0.0337 0.0716,0.0843 0.11375,0.15166 0.0422,0.0674 0.0801,0.11797 0.11375,0.15166 0.0589,0.0169 0.14323,-0.11795 0.25277,-0.40443 l 0.31596,0 c 0.0842,10e-6 0.16851,0.0506 0.25277,0.15166 0.0927,0.10112 0.18115,0.15167 0.26541,0.15166 0.15165,10e-6 0.29489,-0.0674 0.42971,-0.20221 0.14323,0.5898 0.21485,1.25964 0.21486,2.00953 -1e-5,0.19379 -0.008,0.48026 -0.0253,0.85942 -0.008,0.37073 -0.0126,0.64878 -0.0126,0.83414 -1e-5,0.43814 0.0253,0.82993 0.0758,1.17538 0.17693,0.21065 0.44656,0.32018 0.80887,0.32861 0.47183,0.0168 0.76672,0.0548 0.8847,0.11374 -0.0253,0 -0.008,0.0295 0.0506,0.0885 0.0589,0.059 0.0885,0.10533 0.0885,0.13903 -1e-5,0.0168 -0.008,0.0337 -0.0253,0.0505 -1e-5,0.0421 -0.0337,0.0927 -0.1011,0.15166 -2e-5,0.008 0.0295,0.0253 0.0885,0.0506" />
        <path
           style="font-size:11px;font-style:normal;font-variant:normal;font-weight:normal;font-stretch:normal;line-height:125%;letter-spacing:0px;word-spacing:0px;fill:#000000;fill-opacity:1;stroke:none;font-family:Love LetterTW;-inkscape-font-specification:Love LetterTW"
           inkscape:connector-curvature="0"
           id="path3147"
           d="m 210.0197,968.65263 c 0,0.37916 -0.0842,0.93947 -0.25277,1.68093 -0.059,0.27805 -0.40865,0.64035 -1.049,1.08691 -0.63193,0.44657 -1.05743,0.66985 -1.27649,0.66985 -0.0758,0 -0.1938,0.0168 -0.35388,0.0505 -0.15167,0.0337 -0.26963,0.0506 -0.35388,0.0506 -0.12639,0 -0.37494,-0.0716 -0.74568,-0.21486 -0.37073,-0.14324 -0.66562,-0.28647 -0.88469,-0.42971 -0.26963,-0.16851 -0.44235,-0.37073 -0.51818,-0.60665 -0.28647,-0.82572 -0.42971,-1.43658 -0.42971,-1.83259 0,-0.77516 0.0758,-1.35653 0.22749,-1.74412 0.23591,-0.59821 0.50132,-0.99422 0.79623,-1.18802 0.11796,-0.0758 0.3286,-0.14744 0.63192,-0.21485 0.41286,-0.0927 0.64457,-0.14745 0.69512,-0.1643 0.0506,-0.0168 0.14324,-0.0716 0.27805,-0.16431 0.10111,-0.0758 0.20222,-0.11373 0.30333,-0.11374 0.31174,0 0.67404,0.1306 1.08691,0.39179 0.0253,0.0169 0.17694,0.0674 0.45499,0.15166 0.25277,0.0758 0.40864,0.14746 0.46762,0.21486 0.19379,0.24435 0.38337,0.58138 0.56874,1.01108 0.23591,0.5224 0.35388,0.97739 0.35388,1.36496 m -1.11219,0.40444 c 0,-0.10111 -0.0169,-0.17694 -0.0506,-0.2275 -0.0337,-0.0506 -0.0674,-0.0927 -0.10111,-0.12638 0.0422,-0.19379 -0.0379,-0.46341 -0.24013,-0.80887 -0.16852,-0.31174 -0.31596,-0.51396 -0.44235,-0.60665 -0.31176,-0.23591 -0.60665,-0.35387 -0.8847,-0.35388 -0.20221,1e-5 -0.63192,0.11797 -1.28913,0.35388 -0.008,0.0674 -0.0632,0.17273 -0.1643,0.31597 -0.12638,0.18537 -0.20221,0.30333 -0.22749,0.35388 -0.0253,0.0505 -0.0379,0.26541 -0.0379,0.64456 0,0.46342 0.021,0.77938 0.0632,0.94789 0.0674,0.2612 0.26119,0.6235 0.58137,1.08692 0.0422,0.008 0.1643,0.0548 0.36652,0.13902 0.17694,0.0674 0.31174,0.10111 0.40443,0.10111 0.0842,0 0.15166,-0.0169 0.20222,-0.0506 0.0506,-0.0337 0.11795,-0.0506 0.20221,-0.0506 0.10111,0 0.16851,0.0169 0.20222,0.0506 0.0337,0.0253 0.0674,0.059 0.10111,0.10111 -0.15166,0.10111 -0.2275,0.24013 -0.2275,0.41707 0,0.0758 0.0126,0.15167 0.0379,0.2275 l 0.54346,0 c 0.28647,-0.12639 0.42971,-0.3286 0.42971,-0.60665 0,-0.16851 -0.0548,-0.38337 -0.1643,-0.64457 0.46341,-0.64877 0.69512,-1.07006 0.69512,-1.26385" />
        <path
           style="font-size:11px;font-style:normal;font-variant:normal;font-weight:normal;font-stretch:normal;line-height:125%;letter-spacing:0px;word-spacing:0px;fill:#000000;fill-opacity:1;stroke:none;font-family:Love LetterTW;-inkscape-font-specification:Love LetterTW"
           inkscape:connector-curvature="0"
           id="path3149"
           d="m 218.46836,971.24354 c -0.008,0.0842 -0.11374,0.33281 -0.31596,0.74567 -0.0842,0.008 -0.26542,0.0337 -0.54346,0.0758 -0.24434,0.0421 -0.41286,0.0632 -0.50554,0.0632 -0.0674,0 -0.26962,-0.0168 -0.60665,-0.0506 -0.33703,-0.0421 -0.58138,-0.0632 -0.73303,-0.0632 -0.0422,-0.16009 -0.11375,-0.37916 -0.21486,-0.65721 0.54766,-0.26119 0.88469,-0.5266 1.01109,-0.79623 0.0589,-0.13481 0.0885,-0.45498 0.0885,-0.96052 -2e-5,-0.0506 -0.0337,-0.3286 -0.10111,-0.83415 -0.0758,-0.54766 -0.11797,-0.9521 -0.12639,-1.2133 -0.18537,-0.10111 -0.43814,-0.28647 -0.75831,-0.55609 -0.0506,-0.0168 -0.1601,-0.0253 -0.3286,-0.0253 -0.1938,0 -0.29912,0.0253 -0.31597,0.0758 -0.0506,0.14324 -0.0969,0.24014 -0.13902,0.29069 -0.18537,0.17694 -0.37073,0.35388 -0.5561,0.53082 -0.24434,0.23592 -0.40443,0.42971 -0.48026,0.58137 -0.0674,0.14324 -0.1095,0.32018 -0.12639,0.53082 -0.0169,0.15166 -0.021,0.3286 -0.0126,0.53082 0.008,0.30332 0.0126,0.43392 0.0126,0.39179 0,0.30333 0.0885,0.56031 0.26541,0.77095 0.0337,0.0337 0.31597,0.29911 0.84679,0.79623 -0.0337,0.0253 -0.13482,0.1306 -0.30333,0.31596 -0.13482,0.16009 -0.25277,0.24013 -0.35388,0.24013 0.008,0 -0.19379,0.008 -0.60665,0.0253 -0.40443,0.008 -0.76253,0.0126 -1.07427,0.0126 -0.43815,-0.008 -0.80045,-0.0253 -1.08692,-0.0505 0,-0.0253 -0.021,-0.0632 -0.0632,-0.11375 -0.0337,-0.059 -0.0506,-0.13481 -0.0506,-0.22749 0,-0.0927 0.13061,-0.2612 0.3918,-0.50555 0.26961,-0.25277 0.50132,-0.43392 0.69512,-0.54345 -0.0169,-0.0927 -0.0295,-0.25698 -0.0379,-0.49291 0.17694,-0.15166 0.28647,-0.34966 0.32861,-0.59401 0.0169,-0.059 0.005,-0.14744 -0.0379,-0.26541 -0.0422,-0.12638 -0.0632,-0.21485 -0.0632,-0.26541 0,-0.0337 0.005,-0.0632 0.0126,-0.0885 l 0.12638,0 c 0,-0.059 -0.0126,-0.17693 -0.0379,-0.35387 -0.0169,-0.13481 -0.0169,-0.24013 0,-0.31597 -0.23593,-0.3286 -0.69092,-0.83414 -1.36497,-1.51662 0.0422,-0.20221 0.2275,-0.37915 0.5561,-0.53082 0.3286,-0.16008 0.66141,-0.24013 0.99844,-0.24013 0.16851,0 0.50555,0.16852 1.01109,0.50554 0.60665,-0.40443 1.17959,-0.60665 1.71884,-0.60665 0.40442,0 0.91418,0.21065 1.52926,0.63192 0.0253,0.30334 0.0801,0.64458 0.1643,1.02373 0.0675,0.10954 0.14745,0.27805 0.24013,0.50554 0.0506,0.26962 0.0801,0.69512 0.0885,1.27649 0.008,0.60665 0.0337,1.05743 0.0758,1.35232 0.0169,0.11797 0.10949,0.2275 0.27804,0.32861 0.17693,0.0927 0.34545,0.18115 0.50554,0.26541" />
      </g>
    </g>
  </g>
</svg>
